<svg xmlns="http://www.w3.org/2000/svg" viewBox="0 0 364.51 366.92"><defs><style>.a{fill:#c63433;}.b{fill:#221f1f;}</style></defs><title>logo</title><path class="a" d="M-533.45,17.47c13.56-7.73,26.35-9.12,39.15-7.22L-479-5.08Q-467.75,4-456.54,21.15c14.19,5.06,29.39,10.26,46.25,11.91l20.77,2.15c8.87,1,16.73.38,23.57-1.77l12.55-12.55a14.75,14.75,0,0,1-4.06,7.73l-26.1,26.23c-11.15,11.15-40.42,5.83-53,4.31h-.89c12.67,32.05,19.89,67.91,18.25,92.74L-445.39,178c0,.12-1.4-1.65-4.18-5.2-5.58-7.1-13.43-16-20.91-21.67-3.8-2.78-6.71-3.42-8.74-1.77L-453,123.14a5.5,5.5,0,0,1,1.26-.63c-6.58-26.36-17.36-53.85-31-75.14-27-9.63-50.93-18.88-76.91-3.8Z" transform="translate(667.94 50.84)"/><path class="b" d="M-552.71,57.34c11.65,1,16.21.76,21.28.13l1-1v.88c3.16-.5,7.22-1.14,13.81-1.64l-12.67,12.54a145.13,145.13,0,0,0,11.4,35.6c5.45,11.79,8.11,19.9,8.11,24.2l-1.77,1.78a169.34,169.34,0,0,1,17.35-1h9.38l-26.1,26.11h-9.25A199.53,199.53,0,0,0-546,156.55a171.44,171.44,0,0,1-20.65,1.78l24.33-24.46C-548,119.17-556,99.66-556.39,83.44c-5.45.89-9.75,1-22.42,0Z" transform="translate(667.94 50.84)"/><path class="b" d="M-304.83,132.86c-.07,1.7,1.17,1.09,1.4,1.35C-303.77,131.35-305.16,132.94-304.83,132.86Z" transform="translate(667.94 50.84)"/><polygon class="b" points="357.97 156.22 358.56 156.62 356.61 152.83 357.97 156.22"/><path class="b" d="M-315.84,80.25c-.66,1.49,0,3.69,1,6.13a25,25,0,0,1,2.19,7.45l-.3.85,2.15,1.65c-.39-1.35-.84-2.8-1.32-4.26s-.94-2.95-1.5-4.36A39.14,39.14,0,0,1-315.84,80.25Z" transform="translate(667.94 50.84)"/><path class="b" d="M-316.2,65.57c-.46,1.12-1.79-2.57,1,3.16,0-.33,0-.44,0-.63C-315.48,67.57-315.77,66.84-316.2,65.57Z" transform="translate(667.94 50.84)"/><path class="b" d="M-315.26,68.1c1.08,2.58,0-1.95,0,0Z" transform="translate(667.94 50.84)"/><path class="b" d="M-320.71,56.44l2.19,3c.13-.89-1.12-3.94-.3-3C-320.75,53.21-320.86,54.15-320.71,56.44Z" transform="translate(667.94 50.84)"/><path class="b" d="M-323.6,54c.39.51.76,1,1.11,1.56C-322.44,55.15-322.57,54.65-323.6,54Z" transform="translate(667.94 50.84)"/><path class="b" d="M-320.24,58.91l-2.25-3.37c-.1.63-.7,1,1,1.57C-322.23,57.08-321.35,57.54-320.24,58.91Z" transform="translate(667.94 50.84)"/><path class="b" d="M-319.6,61.11a13.39,13.39,0,0,1,.46,2.69c-.06.51-.34.35-1.41-1.16,1.47,3.13,2.38,4.36,2.65,4,.13-.19.08-.78-.18-1.72A19.52,19.52,0,0,0-319.6,61.11Z" transform="translate(667.94 50.84)"/><path class="b" d="M-318.38,79.68c.09.9.18,1.8.21,2.71l1.31,2a10.46,10.46,0,0,1-.74-2.88C-317.82,80.41-318.09,79.5-318.38,79.68Z" transform="translate(667.94 50.84)"/><path class="b" d="M-330.67,35.8c-.51.05-.36,1.68-.71,2.22.64.65,1.23,1.35,1.83,2C-329.93,38.68-331.15,36.32-330.67,35.8Z" transform="translate(667.94 50.84)"/><path class="b" d="M-331.38,38l-2.84-3C-332.36,38.11-331.69,38.47-331.38,38Z" transform="translate(667.94 50.84)"/><path class="b" d="M-326,54.45l1.11,1.27,1,1.31,2.1,2.65c-1.58-2.16-3.12-4.3-4.85-6.34Z" transform="translate(667.94 50.84)"/><path class="b" d="M-339.4,22.92c.75.4,1.47.83,2.2,1.25L-339,23l-1.9-1.13Z" transform="translate(667.94 50.84)"/><path class="b" d="M-346,15c1.79.74-.41-2.73,1.19-1.71a27.09,27.09,0,0,0-6-4.52A19.16,19.16,0,0,1-346,15Z" transform="translate(667.94 50.84)"/><path class="b" d="M-354,6.79a32.73,32.73,0,0,0,3.21,2A16.46,16.46,0,0,0-354,6.79Z" transform="translate(667.94 50.84)"/><path class="b" d="M-337.85,29.23c.05-.41.29-1.31-.78-3.34l-.12,2Z" transform="translate(667.94 50.84)"/><path class="b" d="M-338.75,28v-.07l-1.93-2.83Z" transform="translate(667.94 50.84)"/><path class="b" d="M-337.62,29.56l-.23-.33C-337.86,29.43-337.85,29.53-337.62,29.56Z" transform="translate(667.94 50.84)"/><path class="b" d="M-329.89,44.71c-1.8-1.7-4.86-5.48-3.47-.87C-331.78,44.84-332.58,42.19-329.89,44.71Z" transform="translate(667.94 50.84)"/><path class="b" d="M-337.81,32.07c.74,1.2,1.38,2.47,2.07,3.7.24-.25.24-1.17,1.17-.38C-335.66,34.28-336.69,33.14-337.81,32.07Z" transform="translate(667.94 50.84)"/><polygon class="b" points="328.6 81.44 330.13 82.9 329.31 81.56 328.6 81.44"/><path class="b" d="M-350,13a15.29,15.29,0,0,1-2.3-1.85c-.76-.69-1.53-1.44-2.35-2.24.74,1,1.56,1.92,2.32,2.9s1.53,1.92,2.32,2.82C-349.46,14.65-348.22,15-350,13Z" transform="translate(667.94 50.84)"/><path class="b" d="M-344.41,20.24l-.31-.28C-344.65,20.23-344.56,20.41-344.41,20.24Z" transform="translate(667.94 50.84)"/><path class="b" d="M-370.9-6.45l.12.41a1.39,1.39,0,0,1,.21-.11Z" transform="translate(667.94 50.84)"/><path class="b" d="M-349.89,15.13a7.36,7.36,0,0,0,2.94,2.7c-1-.95-2-2-3-3.17C-350.22,14.67-350.33,14.73-349.89,15.13Z" transform="translate(667.94 50.84)"/><path class="b" d="M-358.89,2.7c.51.85,1.13,1.77,1.76,2.75C-357.47,4.47-358.4,2.69-358.89,2.7Z" transform="translate(667.94 50.84)"/><path class="b" d="M-344.83,19.25c.07.06.14.11.21.18C-344.77,18.78-344.83,18.93-344.83,19.25Z" transform="translate(667.94 50.84)"/><path class="b" d="M-344.83,19.25a13.52,13.52,0,0,0-2.12-1.42A28.58,28.58,0,0,0-344.72,20,2.67,2.67,0,0,1-344.83,19.25Z" transform="translate(667.94 50.84)"/><path class="b" d="M-381.25-4.17c.49-.38,1.81-.07,3.31.78a12.8,12.8,0,0,1,2.3,1.65A12.84,12.84,0,0,1-373.69.68c3.55,1.9,4.23-2.69,2.91-6.72-.44.34-.69.62-4.43-1.4.83,1.34,6.09,7.09,2.75,5.62-2.24-1.57-3.06-2.31-3.5-3a15,15,0,0,0-1.37-2.33c.44,1.28-1.27.63-3.11,0s-3.88-1.19-4,0c1.45.67,2.81,1.47,4.2,2.23C-380.42-4.6-382.08-5.22-381.25-4.17Z" transform="translate(667.94 50.84)"/><path class="b" d="M-364.81-.67l1.35,1.08a33.1,33.1,0,0,1-3.4-5.22c-2.57-1.46-3.31-1.51-3.71-1.34,2.1,1.92,4.27,3.77,6.31,5.75Z" transform="translate(667.94 50.84)"/><path class="b" d="M-357.86,5.82c-1.83-.11-5.24-2.49-4.38.23.93.83,1.58,1.37,2.08,1.74a4.19,4.19,0,0,0,1.2.64,6.38,6.38,0,0,1,2.45,1.13c-5.86-5.68,2.14,1.2-1.41-3.59a43.92,43.92,0,0,1,3.3,3c-.9-1.17-1.75-2.34-2.51-3.49l.07.2,0,0h0c.13.37.14.52-.07.17a.63.63,0,0,1-.13-.11,1.21,1.21,0,0,1-.61.08c-1.45-1.91,0-.51.61-.08.06,0,.15,0,.2-.06a0,0,0,0,0,0,0c-1-.93-2.09-1.8-3.17-2.65L-363.46.41A76.49,76.49,0,0,0-357.86,5.82Z" transform="translate(667.94 50.84)"/><path class="b" d="M-337.93,41.61c0-.27.05-.31.12-.37C-338.22,40.89-338.42,40.78-337.93,41.61Z" transform="translate(667.94 50.84)"/><path class="b" d="M-339,38.44A5,5,0,0,1-337,40.62c.56,1.58-.53.32-.84.62.91.76,2.89,2.89,1.55-.47l-.46-.39c-1.35-2.93-2.27-7.35-1.82-7A11.48,11.48,0,0,0-339,38.44Z" transform="translate(667.94 50.84)"/><path class="b" d="M-347.92,21.79c-1.52-1.66-3.18-3.19-4.8-4.75l1.38,3.3.4-.56C-348.71,22.87-348.63,21.75-347.92,21.79Z" transform="translate(667.94 50.84)"/><path class="b" d="M-371.08-7.46l1.56-.45c-1.4-.4-2.89-.68-4.32-1Z" transform="translate(667.94 50.84)"/><path class="b" d="M-378.21-12.86l1-.74c-.76-.3-1.56-.55-2.34-.82Z" transform="translate(667.94 50.84)"/><path class="b" d="M-633.28,220.2l1.22,1.43A12.38,12.38,0,0,0-633.28,220.2Z" transform="translate(667.94 50.84)"/><path class="b" d="M-639.61,208.34l-.67,0C-639.71,208.72-639.38,208.84-639.61,208.34Z" transform="translate(667.94 50.84)"/><path class="b" d="M-584.52-21.75c-3.06.64-6.81,1-5.77,1.93l1.48.59A14.85,14.85,0,0,1-584.52-21.75Z" transform="translate(667.94 50.84)"/><path class="b" d="M-660.24,99.65l.53-.73c-.28-.76-.55-1.47-.79-2.11C-660.42,97.67-660.38,98.63-660.24,99.65Z" transform="translate(667.94 50.84)"/><path class="b" d="M-655.3,102.6l-1.46,3.41A21.9,21.9,0,0,0-655.3,102.6Z" transform="translate(667.94 50.84)"/><path class="b" d="M-582.69,272.29c.84,0,1.66.11,2.52.11C-582.94,270.54-582.09,271.89-582.69,272.29Z" transform="translate(667.94 50.84)"/><path class="b" d="M-462-47a38.05,38.05,0,0,0-6.19-1.58C-465.19-47.42-462.92-46-462-47Z" transform="translate(667.94 50.84)"/><path class="b" d="M-648,222.28c.82,1,1.31,1.28,1.55,1.11C-647.29,222.4-647.86,221.9-648,222.28Z" transform="translate(667.94 50.84)"/><path class="b" d="M-475.47-49.16c.43.17.87.27,1.31.41a30.23,30.23,0,0,1,6,.2A11.89,11.89,0,0,0-475.47-49.16Z" transform="translate(667.94 50.84)"/><path class="b" d="M-348.32,228.44c.15-.12.3-.31.45-.42C-348,227.88-348.13,228.1-348.32,228.44Z" transform="translate(667.94 50.84)"/><path class="b" d="M-308,158.41c0,.82-.19,2.16-.33,3.41A15.58,15.58,0,0,0-308,158.41Z" transform="translate(667.94 50.84)"/><path class="b" d="M-408.67-31.95c1.75.75.34,0,0,0Z" transform="translate(667.94 50.84)"/><path class="b" d="M-402.89-23.23c-.42-.05-.77,0-.95.22A1.27,1.27,0,0,1-402.89-23.23Z" transform="translate(667.94 50.84)"/><path class="b" d="M-494.08-41.38h-.16C-493.69-41.14-493.78-41.18-494.08-41.38Z" transform="translate(667.94 50.84)"/><path class="b" d="M-406.38-30.14a21.56,21.56,0,0,0-2-1.45A22.93,22.93,0,0,0-406.38-30.14Z" transform="translate(667.94 50.84)"/><path class="b" d="M-406.45-30.86-405-30C-404.71-30.08-404.84-30.3-406.45-30.86Z" transform="translate(667.94 50.84)"/><path class="b" d="M-411.11-33a29.16,29.16,0,0,1,2.74,1.39c-.3-.23-.41-.36-.3-.36Z" transform="translate(667.94 50.84)"/><path class="b" d="M-465.45,304.67a2.92,2.92,0,0,1,.39.07C-463.35,304-464.12,304.16-465.45,304.67Z" transform="translate(667.94 50.84)"/><path class="b" d="M-612.53,18.67c0-.06,0-.12.09-.18l-.22.15Z" transform="translate(667.94 50.84)"/><path class="b" d="M-616,24a7.11,7.11,0,0,1,3.33-5.37c-1.39-.34-2.81-.69-4.21-1Q-616.46,20.88-616,24Z" transform="translate(667.94 50.84)"/><path class="b" d="M-614,245.92l-2-4.07a44.93,44.93,0,0,1,5.08,3.49c.95.61,1,.41.35-1.66-.86.56-2,.07-3.28-1a27.92,27.92,0,0,1-4-4.22,42.81,42.81,0,0,0-3.92-4.35c-1.18-1.14-2.27-1.75-3.18-1.28l-1-2.86c.45.7.72.67,1.16,1.36-1.65-5.65-4.82-1.75-8.33-8.23-1.07-2.34-1.39-4.2-.13-2.94l-3.69-4.4c-.39-.73-.34-1.11-.14-1.1s.58.37,1,1.1c-1.51-2.45-2.84-5-4.27-7.5h.14a34.21,34.21,0,0,1-4.12-4.05c-.38-2.26.85.83,1.08.11-.95-1.33-1.95-2.65-2.87-4,.13-1.12.79-.84,1.57.09a14.68,14.68,0,0,1,2.38,4c.94-2.88.3-3.64-.79-4.94s-2.53-3.21-3.12-8.09c.66,1.35,1.41,2.66,2.1,4a10,10,0,0,0-.07-5.17,42.89,42.89,0,0,1-1-6.44c-.17.66-.23,3.3-.57,5.25s-.94,3.19-2.25.9a12.31,12.31,0,0,0-2.31-5.75c1.38-.46.3-3-.71-6.21l1.92-.28a9.5,9.5,0,0,0-1.89-2.94,10.17,10.17,0,0,1-1.77-1.84c-.74-4.05.51-5.18,1.6-6.36-.42-3.21-.81-2-1.31-.92s-1.09,2.06-2-1.74a30,30,0,0,0-.4-3.85c-.16-1.22-.36-2.4-.64-3.6-.55-2.41-1.43-4.93-2.18-8.18.36-3.89,1.22.58,1.66-.84l-1.79-3.29c0-.83.47-.59.71-.46-.74-2.84-1.94-.13-2.59-4.68-1-.58-.42-3,.35-5.85a26.4,26.4,0,0,0,1-4.58,11.07,11.07,0,0,0-.42-4.56c.65-1.35,1.12.73,1.9.35-.5-3.86-.66-5.54-.9-7s-.43-2.84-1.1-6.15c.64-1.75,1.27-3.48,2-5.18-2.12,3.69-2.91-1.57-3.48-6.36-.94,1.29-1.76,2.41-2.19,3.18l.14-3.72c0-1.25.2-2.47.29-3.71.51-.81,1,.07,1.5,1.41,0-.52-.09-1-.15-1.41,1.28-2.4,2-.81,2.68,1.22-.56.78-1.16,1.55-1.74,2.3.83,2,1.81,3.87,3,3.71a8.21,8.21,0,0,1-.1-2.4c.23.51.45.86.68.68s-.08-1-.28-2.25l2.46-1.12-.75-.56,1.69-4.35c.55-1.45,1.25-2.86,1.86-4.27-.06-1.73-.21-3.44-.34-5.2s-.11-3.53-.08-5.44c0-1,.05-2,.11-3s.25-2.06.43-3.15.41-2.23.69-3.42a28.42,28.42,0,0,1,1.08-3.71c.34,3.06,2.12,1.52,3.76,2.4-1.5.92-2,2.95-2.52,5.29l-.77,3.73a19.37,19.37,0,0,1-1.12,3.87c1.11-2.63,1.74-1.74,1.8-1,.4-3.27,1.14-6.45,1.75-9.71.66.39,1.12,0,1.59-.71s1.06-1.79,1.85-2.81c-1.76.26-1.48-1.59-.64-4,.21-.6.45-1.25.71-1.9l.87-1.94a25.54,25.54,0,0,0,1.32-3.5c1,.25,1.48,1.57-.93,5.75,2.22-1.87,2.21-3.77,2.17-5.73s0-3.93,2.13-5.74c-.57,1-1,1.52-.81,2.18a16.13,16.13,0,0,1,2.52-5c1.08-1.5,2.16-2.35,2.09-1.46l-.62,1c1.14-1.6,2.51-3.66,3.91-5.88s3-4.47,4.35-6.68a67.75,67.75,0,0,0,3.46-5.84c.81-1.66,1.19-2.94.91-3.56a12.2,12.2,0,0,1,1.81,3.45c.78-5.36,1.72-10.88,3.08-16.34.35,1.23,2.31,1.85,3.7,2.9s2.24,2.51.47,5.27a23.63,23.63,0,0,0,2.51-2.11,31.49,31.49,0,0,0,3-3.73c-1.14.63-4.53,0-3.41-1.41A23.19,23.19,0,0,0-606,9.64l1.62-.86a25.51,25.51,0,0,1,3.11-1.4c-1.76.89-2.46-3,0-5,0,.7,2.4,2.41,1.81,3.39l1.74-3.74c.59-1.25,1.26-2.44,1.9-3.67C-596.95,0-594.3.81-592.41.54c-.51,0,.77-1,2.35-2.17a47.81,47.81,0,0,0,4.26-3.08l-3,1.2c3.61-2.22,4.57-4.48,5.7-6.6a18.35,18.35,0,0,1,2-3.28,12,12,0,0,1,4-3.27c-.56,1.13,0,4.93,3.93,3.18.21-.62.52-1.65,1-2.93a30.44,30.44,0,0,1,1.9-4.38,32.86,32.86,0,0,1,3-4.77A17.93,17.93,0,0,1-563-29.63l1.78.28c1.66-1.16,3.32-2.36,5.07-3.4-1.29,1.83-3.7,5.21-6.24,8.49-1.29,1.61-2.52,3.4-3.72,5s-2.3,3-3.24,4.07c3.16-.77,1.33.62,5.46-1.61,1.89.08-1.63,2.42-2.82,3.09l5-2.21,1.23-.55,1.27-.48,2.52-1c-.64-.82,1-2.14,2.78-3.43s3.58-2.37,3.08-3.08c-3.5,2-6.79,4.43-10.1,6.65-.65-.8.29-2.8,2.37-5a21.14,21.14,0,0,1,3.92-3.24,26,26,0,0,1,5.22-2.5c2.15,0-.13,3.91.28,4.47a11.74,11.74,0,0,1,3.6-2.28c1.66-.75,3.34-1.36,3.75-1.24l-2.78,2.08c2.17-.34,3.62-1.53,5.25-2.63a9.28,9.28,0,0,1,6.24-1.75,11.53,11.53,0,0,1,3.58.27c1.24.21,2.24.3,2.26-.31-3.36-1.59-5.8-8.33-4.19-10.48.34,0,2.91,0,5.66,0,.68,0,1.38,0,2.06.07l2,.19a17.48,17.48,0,0,1,2.81.49c1.67.62.71,1.89-.27,3.12s-2,2.45-.61,3c0-.56,1.51-1.52,2.15-1.86,2,.13-.48,1.82,3.54.85.37-2.13,8.38-.9,1.69-2a13.37,13.37,0,0,1,4.25-.56,40.6,40.6,0,0,0,4.83-.14c-.82-.6.14-1.8,1.86-3a16.88,16.88,0,0,1,6.28-2.65c-.23.52.74,1.18,1.2,1.47,2.13,0,4,0,5.76.11s3.35.32,4.94.49l4.82.49c1.66.22,3.41.41,5.38.56.69.54,4.39,1.46,2.7,2.19a11.53,11.53,0,0,1,4.66-.53c4.4,2.35-5.36-.4-2.09,2.16.42-1.11,6.37-1,9.88-1A2.31,2.31,0,0,0-459.62-38a11.06,11.06,0,0,0-3.05-.44,66,66,0,0,0-6.7.32c.13-1.26,1.75-2.36,4.45-3.15a25.3,25.3,0,0,1,4.78-.9,52.56,52.56,0,0,1,6-.09c3.38.26,4,.93,3.94,1.34s-.8.76-.2.71A29.48,29.48,0,0,0-443.37-39a26.88,26.88,0,0,0,4.45-.13,15.71,15.71,0,0,1,4.05,0A18.42,18.42,0,0,1-429.24-37c3.43,2.87-.88,3.09-.39,4.49a23.51,23.51,0,0,1-6.19-2.36A27.13,27.13,0,0,0-440.77-37l4.14,2a17.82,17.82,0,0,1-7.14-1.53,18.12,18.12,0,0,0,4.51,2c1.07.37,2.29.74,3.58,1.15l4.06,1.43c1.41.5,2.88,1,4.33,1.54s2.86,1.19,4.25,1.79,2.76,1.17,4,1.85,2.38,1.32,3.39,2c1.76.2,4.68.91,3.69-.25l-2.86-1c-2-2.35,6,.73,2.73-1.41a57.7,57.7,0,0,1,6.6,1.68A31.9,31.9,0,0,1-402-24.44a25.66,25.66,0,0,1,3.54,2.24l0,2.14c.16-.52-2.75-2.85-4.45-3.16,1.25.23,2.89,1.9,4.62,3.38a15.58,15.58,0,0,0,2.66,1.92,3.89,3.89,0,0,0,2.64.64c-.92-1.08-1.82-2.22-2.81-3.24,1,.31,2.12.65,3.25,1s2.32.76,3.51,1.2a24.07,24.07,0,0,1,3.52,1.59,19.56,19.56,0,0,1,3.19,2.28c-.92-2.87-1.08-.53-3-4.44.63,2-2.19.13-4.82-1.56a20.61,20.61,0,0,0-3.33-1.93c-.77-.23-1,0-.24,1.28a11.27,11.27,0,0,0-3.79-4.17,27.38,27.38,0,0,1-4.85-4.29c-.14.6,1.05,1.84-2.77-.45a4.93,4.93,0,0,1-1.1,0l-.25-.18.19.18c-.22,0-.24,0,.07.06A5.64,5.64,0,0,1-404.54-28c-1.3.14-3.46-.65-5.66-1.41a44.91,44.91,0,0,0-5.61-1.68c-2.25-1.33,1.27-.19.24-1.36l-1.82-.23-1.84-.15c.21-1.37-5.64-4.64.41-3.1l-5.17-2.1a27.29,27.29,0,0,0-4.95-2.51A19.57,19.57,0,0,0-433.89-42c-2.47-1-6.82-.39-4.33-.77-1.44-.26-2.88-.55-4.32-.78l-4.36-.58v-.34c-4.17-1.15-8.67-1.27-13.21-1.82a59.94,59.94,0,0,1-14.05-2.5c-1.46.06-2.94.13-4.66.12a45.33,45.33,0,0,1-6.1-.24l-.93-1.19c-1.87.1-4.68-.08-7.23-.21s-4.85-.18-5.61.53a9.38,9.38,0,0,0-4.76-1.08c-1,0-2.11,0-3.26.06s-2.34.29-3.55.47c-2.42.41-4.93.8-7.21,1.32a53,53,0,0,1-6,1.09l0,1.53-1.67.3-1.64.41c-1.09.29-2.19.61-3.32,1s-2.28.73-3.48,1.13-2.42,1-3.73,1.48l.69,1.2c-2.15,1.21-5.18,1.72-8.52,2.54-1.68.38-3.46.76-5.27,1.21a49.61,49.61,0,0,0-5.34,1.84c.29-.67,2.14-1.25,3.52-1.46a20.78,20.78,0,0,0-6.85,1.66,51.08,51.08,0,0,0-6.2,3.5c-2,1.22-3.9,2.66-5.84,3.78A25.36,25.36,0,0,1-577-25.19a10.1,10.1,0,0,1-4.33,2.47A2,2,0,0,0-581-23c-.19.09-.47.25-.74.41a25.79,25.79,0,0,0-2.81.88,20.85,20.85,0,0,0,2.42-.65,43.42,43.42,0,0,0-5.07,3.84l-1.64-.67c-.15.12-.28.2-.44.33-2.25.82-1.18,1.57.46,1.81a12.82,12.82,0,0,0-2.06,2.47c-1.43-.41-2.58.64-3.79,1.73a10.89,10.89,0,0,1-1.94,1.47,3.63,3.63,0,0,1-2.31.55c-.26,1-2.44,3-4.46,5.07s-3.73,4.49-3.35,5.85c-.28-.2-.9.13,0-.7a16,16,0,0,0-5.41,5.16l-2.07-.57-1.18,2.84-1.07,2.9c-3.16,1.69-4.65,2.31-3.3-1.15-1,1.88-1.81,3.14-2.42,4.12s-1,1.66-1.45,2.3a29.9,29.9,0,0,0-3,5.8l-.71-1c-1.52,2-2.73,6.12-4.44,6.71a23.54,23.54,0,0,0-4.86,5c-.48.61-1,1.24-1.48,1.94l-1.49,2.19-3.18,4.85c-4.17,6.9-8.45,15-12.26,21.24,2.19-.57,1.11.78-.16,2.53s-2.7,3.92-1.54,4.67c-1.08.48-2.27,2.22-2.07-.24-.25.9-.52,1.74-.8,2.51s-.5,1.52-.77,2.21c-.52,1.39-1,2.61-1.52,3.77A12.79,12.79,0,0,0-663,84.4c-1,.59-.73-1.87-1.41-1.27,0,.63,0,2.47-.64,3.09s-.37-1.23-.39-2.48a20.18,20.18,0,0,0-.75,4.53,7.14,7.14,0,0,0,.56,2.81,5.43,5.43,0,0,0,2.89,2.54A12.58,12.58,0,0,0-664.48,98a8.59,8.59,0,0,0,.62,4c-1,1.15-2.2,3.2-1.66-1.45-.15.64-.45,1.94-.83,3.53-.18.8-.37,1.67-.57,2.57s-.3,1.85-.42,2.78c-.5,3.69-.74,7.12.27,7.34-.55.78-.42,3.64-.26,4.35-.14,1.46-.26,2.58-.36,3.54s-.11,1.76-.15,2.55c-.08,1.58-.11,3.16-.1,6l.36-1.59c2.2,2.28.51,4.76.9,9.39l-.24-.13a27.84,27.84,0,0,0-.33,5.39,10.46,10.46,0,0,0,.31,2.21,9.15,9.15,0,0,1,.27,2.19c0,.54,0,1.21-.05,2.08s0,1.93-.12,3.26l1.36-.74c1.6.31,1.43,2.63,1.12,5.65s-.48,6.73.65,9.61c.12-.77.27-1.55.41-2.32.76,1.54.28,4-.4,6.54s-1.56,5.22-1.23,6.9c-.05.78-.76-1-1.19-2,.63,9.11,2.12.65,4.34,6.88-.62,1.46-3-.77-1.81,3.58,0,1.19,1.79,4,3.66,7.33a48.2,48.2,0,0,1,2.8,5.07,21.5,21.5,0,0,1,1,2.57,12.12,12.12,0,0,1,.58,2.44c.16-1.54.34-3,2.14-.49a19.83,19.83,0,0,1,1.37,3.78c.2.72.4,1.47.61,2.22s.47,1.5.71,2.25c1,3,2.19,5.86,4.38,7.06.11.62,0,.92-.11,1,.58.7,1.3,1.65,2.07,2.69s1.59,2.2,2.5,3.24c1.77,2.11,3.51,4,4.65,4.53-.62,1.4.08,3.11,1.3,5a34.91,34.91,0,0,0,4.89,5.68c1.86,1.8,3.58,3.55,4.75,4.93s1.61,2.52.73,3.26c1.25,1.35,2.45,2.75,3.73,4.06l3.89,3.9-.53.12q.87,1,1.65,1.8c.53.54,1.05,1,1.53,1.4a22.1,22.1,0,0,0,2.62,1.93,16.41,16.41,0,0,0,4.11,1.84c1,1.3-.16.84-.42.93,3.57,3.7,5.57,5.75,7.8,7.15a29.07,29.07,0,0,0,3.57,2,51.46,51.46,0,0,0,5,2.05l-.14,1.73a9.88,9.88,0,0,1,2.83,2c1.26,1.09,2.92,2.39,4.76,3.87.92.74,1.9,1.5,2.93,2.25s2.16,1.42,3.3,2.1,2.3,1.32,3.48,1.91a26.11,26.11,0,0,0,3.64,1.42,1.62,1.62,0,0,1-1.3.08c5.44,1.88,11.12,5.72,16.45,8.46,1.33.68,2.62,1.31,3.85,1.85.62.26,1.22.51,1.81.72s1.17.35,1.73.48c2.23.5,4.13.46,5.53-.5l1.87.28,1.88.2,3.76.38c-4.56-1.52-4-2-2.83-2.31s3.07-.54,1.33-1.5a15.52,15.52,0,0,1,5.21,2.24c1.21.78,1.4,1.44-.86,1L-534,306c-2.4,2.43,11.31,3.78,10.7,5.49a273.91,273.91,0,0,0,27.89,4l6.92.47c2.3.08,4.6.08,6.88.11,1.15,0,2.29.05,3.43,0l3.4-.16,3.39-.19c1.13-.07,2.25-.14,3.36-.29-.76-.65-1.51-1.27-2.27-2,2.06-.15,4.11-.42,6.17-.62,1.68.3,2.41,1.42-2,1.9,1.24.47,3.07,0,4.58-.7a6.4,6.4,0,0,0,2.71-1.85c4.34-.32,3.64.45,2.14,1.26s-3.78,1.66-2.44,1.45l3.57-.81-.86-.1c1.38-.71,2.09-1.3,3.11-1.83a11.3,11.3,0,0,1,1.89-.74,24.77,24.77,0,0,1,3.06-.81c3.39-.33,2,.93,3.32.71,0,.15.49.12,2-.4,2.56-.6,5.1-1.3,7.66-1.95l-3.51-.8a30.24,30.24,0,0,1,4.2-1.74c.88-.41.87-.63-1.14-1.08,2.94.68,10-1.31,16.52-4,1.65-.61,3.22-1.38,4.72-2.07l4.18-1.92a35.74,35.74,0,0,1,5.22-2.31,34.94,34.94,0,0,1,2.91-2.3c1-.75,2-1.47,3.07-2.16,2.13-1.39,4.49-2.63,7-4.21-1.43.49-3.18-.7,1.19-3.22a1.33,1.33,0,0,0,1.72,1.29,10.65,10.65,0,0,0,3.52-1.48c1.35-.78,2.83-1.69,4.29-2.42a15.61,15.61,0,0,1,2.16-.91,6.63,6.63,0,0,1,2-.46c-2,.38.76-2,3.29-4.24a15.85,15.85,0,0,0,2.85-3.06c.46-.76.22-1.11-1.31-.69,3.42-2.53,1.16,1,4.24-.43.83-1,1.77-1.91,2.67-2.9s1.89-1.94,2.9-2.9,2.08-1.89,3.14-2.86l3.21-3c1.08-1,2.22-2,3.3-3.08s2.15-2.19,3.21-3.31a60.23,60.23,0,0,0,6-7.25c-.3-.48-2.23.68-1.19-1.92,2.1-1.17,4-2.5,6.06-3.81.63-1.09.34-2,.4-3a3.05,3.05,0,0,1,.54-1.52,7,7,0,0,1,1.94-1.88c-.72.3-1.8.73-1-.76,7.81-9.6,13.23-21.21,17.55-33s7.69-24,12.09-36.1c-1.61,3.21-1.31.94-.89-1.63-.54,1.63-1.28-.23-2.05,0,.57-1.67,1.11-3.36,1.66-5.05s1.15-3.39,1.59-5.11c-.91-1.05-.73-3.84-.55-6.54a22.42,22.42,0,0,0,0-3.74c-.1-1.06-.32-1.86-.78-2.14l.25,3.31c-1.07-2.24-2.32-.74-3.74,1.15s-3,4.17-4.46,3.75a6.7,6.7,0,0,1,.24,4.09,42.9,42.9,0,0,1-1.61,4.74c-.31.83-.62,1.69-.88,2.57s-.48,1.78-.68,2.69a12.43,12.43,0,0,0,.14,5.83c-.87,1.56-.65-1.6-1.47-.83.93,2.15.58,4.51-.93,8.64l-.18-.56-.46,2.17c-.17.69-.37,1.36-.55,2-.37,1.29-.74,2.5-1.12,3.65a58.44,58.44,0,0,1-2.48,6.48l-1.4,3.19c-.46,1.09-1.07,2.18-1.63,3.35-1.17,2.33-2.38,5-4,7.94l1.71-.34a17.42,17.42,0,0,1-2.93,4.08c.55,4,3.51-7.48,4.41-3.7a10.55,10.55,0,0,0-3.2,4c-1.08,1.89-2.33,4.13-3.48,6.37l-.88,1.65c-.3.54-.63,1.06-.94,1.56-.63,1-1.26,1.95-1.86,2.76-1.21,1.62-2.34,2.74-3.42,2.84-2.44,3.78,2.11-.24-.34,3.55l-1.4.52.35,1.6a7.33,7.33,0,0,1-2.56,2.32,2.08,2.08,0,0,1-1.72.28,17.32,17.32,0,0,0,1.4-2.43,22.49,22.49,0,0,0-4.24,5.52,25.17,25.17,0,0,1-2.88,4.19c1-1,2.08-2,3.09-3.07-.84,1.29-1.78,2.56-2.72,3.86s-1.9,2.64-3,3.88c-2.17,2.51-4.31,5.15-6.69,7.56l-3.44,3.7c-1.19,1.18-2.36,2.36-3.49,3.55-2.21,2.42-4.49,4.62-6.44,6.94l1.12-.09c-.77.87-1.43,1.6-2,2.19s-1.17,1-1.67,1.43a21.26,21.26,0,0,1-2.67,1.78c-.86.49-1.71,1-2.89,1.76a47.64,47.64,0,0,0-4.59,3.31l.21-.34a19,19,0,0,1-5.7,4.88c1.7-2-4.82,1.28-2.49-1.25l-1.29,1.1-1.08.86c-.65.51-1.15.92-1.54,1.26a7,7,0,0,0-1.39,1.46c-.25.38-.39.73-.75,1.34A15.76,15.76,0,0,1-407,287l-1.87-.29a22.92,22.92,0,0,1-1.86,2.28,16.13,16.13,0,0,1-4.06,2.68c3.37-2.57-3.65-.21,0-3.26a26.51,26.51,0,0,0-6.6,2.22,53,53,0,0,0-4.78,2.52,17.24,17.24,0,0,1-3.92,1.89,6.77,6.77,0,0,1-4-.07c-1.79,2.24.49,1.92,2.95,1.22s5-1.95,3.87-1.11c1.24,0,.52.95-.94,2a20.15,20.15,0,0,1-5.35,2.35c-1.63.52-3.3.06-5.58-.33a19.46,19.46,0,0,0-3.91-.26,20.18,20.18,0,0,0-2.42.24,27.48,27.48,0,0,0-2.85.51c.82-.17.82-.41,1.64-.59a12.91,12.91,0,0,0-4.6,1.14,16.38,16.38,0,0,1-2.43.74,9,9,0,0,1-2.79,0c-1.8,2.22-4.94.78-5.19,3.23l7.56-1.9c-2.1.69-4,1.9-6.44,2.94a19.66,19.66,0,0,1-8.95,1.48,15.91,15.91,0,0,1,4-2,7.11,7.11,0,0,0-3.12.27,6.14,6.14,0,0,1-3.17.2c.1-.61.74-.95,1.69-1.27a24.54,24.54,0,0,1,3.66-.73c1.41-.21,2.95-.41,4.41-.72a14.4,14.4,0,0,0,3.88-1.51c-1.19-.31-3.28.56-4.86,1s-2.64.61-1.65-.81c-1.44,1.83-3.53,2-5.88,2.09s-5-.12-7.79,1.35l.3-1.45a13.33,13.33,0,0,1-4.38,1l2.91-1.92a12.34,12.34,0,0,1-6.65.18c-2.18-.33-4.31-1-6.5-.6,4.56.11,5.08.53,4.93,1.08s-1,1.29,1,1.76a17.7,17.7,0,0,1-3.6.36,11.44,11.44,0,0,1-2.46-.21,8.39,8.39,0,0,1-3.07-1.38,14.9,14.9,0,0,0-3.26-1.72,22.55,22.55,0,0,0-6.66-1c1.7,0,6.32,1.35,3.6,1.82a33.8,33.8,0,0,1-3.82-.95,14.3,14.3,0,0,1-3-1.36c-8.32-.76,1.08,1.61-2.57,2-2.61-2-4.19.06-8,0l.24-1.43a22.62,22.62,0,0,0-2.82-.64,7,7,0,0,0-1.7-.19,2.09,2.09,0,0,0-1.54.63c-.67.59-1.23,1.19-5.36-.34l4.06-1.12c-1.5-.19-3-.31-4.52-.55l1.31-1.35a22,22,0,0,1-5.65-.71c-.76-.21-1.52-.47-2.35-.78s-1.74-.77-2.84-1.25c.74,1.32-1.41,2.29-5.52.95-2.45-1.81,2-.67-3.73-2.69a7.81,7.81,0,0,1,2.53-.28,3.88,3.88,0,0,1,1.38.44,5.28,5.28,0,0,1,1.48,1.11c.41-.36,1.57-.43,2-.78-2.64-1.84-7.21-2.93-9.25-3.7a9.42,9.42,0,0,1,2.05,1.18c-1.46-.23-3-.43-4.42-.69l-4.4-.88c-1-1.07.15-1,1.31-1a17.7,17.7,0,0,0-2.47-.58,11.75,11.75,0,0,1-3-.92c1.12-.76,1.49-1.86,5-.89-2.7-.67-5.31-1.59-8-2.46a12.47,12.47,0,0,0-1.51-1.83c-.6-.68-1-1.33-.42-1.24-1.8-1.44-4.49-2.31-7.35-3.36-1.39-.57-2.83-1.18-4.21-1.9a15.43,15.43,0,0,1-3.81-2.61,5.2,5.2,0,0,1-2.17-.8c-1.13-.88-2.18-1.8-3.22-2.72s-2-1.94-3-2.89a39.65,39.65,0,0,0-3.39-2.74,27.8,27.8,0,0,0-4.08-2.6c-.49-1.38-1-2.69-1.45-4.1-2.06-1.64-1.59-.27-1.44.84s-.05,2-3.54-.83c-2.52-1.93-2.64-2.66-2.25-3.15s1.21-.71.67-1.71a41.54,41.54,0,0,1-5.54-3.21,16.37,16.37,0,0,1-5.16-6.32C-616,243.35-615.31,244.68-614,245.92Zm-33.88-55.83c.35.56.94,1.36,1.39,2.16a2.72,2.72,0,0,1,.6,2.17,2.45,2.45,0,0,1-1.71-1.61A22.3,22.3,0,0,1-647.91,190.09Zm-7.39-99.54a6.37,6.37,0,0,1-1.26,4A11.37,11.37,0,0,1-655.3,90.55Zm227-129.25a.41.41,0,0,0-.16,0C-431.24-40.21-430.27-39.64-428.34-38.7Zm5.78,2.77c.67,0,.7-.16.52-.44-.55.18-1.89-.34-3.37-1C-425.12-36.88-424.45-36.32-422.56-35.93ZM-444.5,310.64l-1.29-.08C-443.18,309.52-443.84,310.06-444.5,310.64Z" transform="translate(667.94 50.84)"/><path class="b" d="M-655.86,102.23a1.34,1.34,0,0,1-.87.4C-656.58,103.17-656.31,103.23-655.86,102.23Z" transform="translate(667.94 50.84)"/><path class="b" d="M-583.15,272.26l.15.13a.6.6,0,0,0,.31-.1Z" transform="translate(667.94 50.84)"/><path class="b" d="M-517.42-33.23a7,7,0,0,1-2.46-.32C-519.88-33.19-519.28-33-517.42-33.23Z" transform="translate(667.94 50.84)"/><path class="b" d="M-391.08-23.07c-1.21-.66-2.49-1.2-3.74-1.79a9.17,9.17,0,0,1,2.95,2.3C-391.77-22.9-392.18-23.74-391.08-23.07Z" transform="translate(667.94 50.84)"/><path class="b" d="M-368.66,5.19c.54.27.9.83,1.43,1.09l.35-.6C-368.69,4-370.3,3.23-368.66,5.19Z" transform="translate(667.94 50.84)"/><path class="b" d="M-390.47-17c-.19.6.29,1.15,1.14,1.71.42.29.94.57,1.5.88l1.75,1a3.81,3.81,0,0,1-.41-.29c.82-.46.54-1-.29-1.6A22,22,0,0,0-390.47-17Z" transform="translate(667.94 50.84)"/><path class="b" d="M-385.53-13a18.9,18.9,0,0,1,2.14,1.48C-382.72-11.89-384.17-12.25-385.53-13Z" transform="translate(667.94 50.84)"/><path class="b" d="M-414.77-33.61c1.12.85,1.41-1.07,1.92-.3,1-.39-1.27-.9-2.89-1-.8-.07-1.46,0-1.46.21S-416.54-34.19-414.77-33.61Z" transform="translate(667.94 50.84)"/><polygon class="b" points="277.17 38.45 277.17 36.66 275.2 36.83 277.17 38.45"/><path class="b" d="M-409.11-24.26l3.75,2.38c.06-.25.63-.12,1.3.09C-406.47-23.08-409-24.71-409.11-24.26Z" transform="translate(667.94 50.84)"/><path class="b" d="M-404.06-21.79a15,15,0,0,0,3.23,1.54A24.73,24.73,0,0,0-404.06-21.79Z" transform="translate(667.94 50.84)"/><path class="b" d="M-396.07-15.26c-.31-.32-.62-.65-.94-1l-2.64-1.64C-398.45-17-397.22-16.2-396.07-15.26Z" transform="translate(667.94 50.84)"/><path class="b" d="M-454-39.83l-4.84-.43c-.57.42.67,1,2.47,1.08C-455.21-39.33-453.4-39.21-454-39.83Z" transform="translate(667.94 50.84)"/><path class="b" d="M-440.91-32.46c-1.14-.65-1.14-1-1.71-1.68l-.62,1.76Z" transform="translate(667.94 50.84)"/><path class="b" d="M-454.4-35.27c-.58.42-7,.26-1.12,1.19a9.81,9.81,0,0,1,2.34-.31c.36,0,.57-.09.44-.23A4.28,4.28,0,0,0-454.4-35.27Z" transform="translate(667.94 50.84)"/><polygon class="b" points="142.38 13.98 143.56 13.68 142.76 10.73 142.38 13.98"/><path class="b" d="M-579.83-6.26c5-2.3.07-2.31,4.73-4.16.38-.62-.61-.31-1.54.11s-1.88.8-1.49.18C-580.52-7.69-582.21-7.12-579.83-6.26Z" transform="translate(667.94 50.84)"/><path class="b" d="M-578.13-10.13a17.44,17.44,0,0,0,1.19-1.31A8.2,8.2,0,0,0-578.13-10.13Z" transform="translate(667.94 50.84)"/><path class="b" d="M-305.07,144.71c.33-1.25.53-2.52.79-3.79l-1.09,2.42C-305.25,143.8-305.18,144.26-305.07,144.71Z" transform="translate(667.94 50.84)"/><path class="b" d="M-307.1,137.36l2-.87-1.71-2.28C-306.77,135.06-306.64,136.72-307.1,137.36Z" transform="translate(667.94 50.84)"/><path class="b" d="M-647.09,179.68l-.52-.13c-.34.66-.16,1.45.21,3Z" transform="translate(667.94 50.84)"/><polygon class="b" points="38.59 273.79 38.19 273.09 37.52 275.31 38.59 273.79"/><path class="b" d="M-603,252.05c-.55-.58-1.26-1.1-1.91-1.67a20.67,20.67,0,0,1-1.84-1.76C-604.13,251-604.17,253.91-603,252.05Z" transform="translate(667.94 50.84)"/><path class="b" d="M-596.52,229.22l-1,.13c-.63.08-1.07.13-1.3.13a3.56,3.56,0,0,0-.43-.61,1.66,1.66,0,0,1-.34-.52l.77-5.45a5.11,5.11,0,0,0-1-.43,9.59,9.59,0,0,1-.91-.35,2.58,2.58,0,0,1-.82-.82,3.3,3.3,0,0,1-.48-.73v-1c.06-.23.13-.49.22-.78a2.69,2.69,0,0,0,.13-.52,2.43,2.43,0,0,1,.09-.6,2.22,2.22,0,0,1,.34-.87c.06-.06.26-.33.61-.82a3.17,3.17,0,0,1,.69-.82c.11-.17.26-.38.43-.61s.22-.33.3-.47a1.72,1.72,0,0,1,.31-.39v-1.13a2.61,2.61,0,0,1,.17-.78l.17-.51a5.64,5.64,0,0,0-.21-1q-.23-.78-.39-1.29a2.93,2.93,0,0,0-.13-1.56c-.2-.86-.33-1.5-.39-1.9,0-.12,0-.35,0-.7s0-.54,0-.6a5.3,5.3,0,0,1-.35-1c-.11-.43-.23-.83-.34-1.21a7.06,7.06,0,0,1-.26-1,5.23,5.23,0,0,1-.09-.57l-.6-1.42c-.29-.67-.58-1.37-.87-2.12s-.56-1.44-.82-2.08a8.87,8.87,0,0,1-.48-1.38,2.29,2.29,0,0,0-.47-.95c-.32-.46-.54-.7-.65-.7a8.29,8.29,0,0,0-.69-.52l-1.13-.73c-.4-.26-.78-.5-1.12-.74a2.32,2.32,0,0,0-.61-.34c-.06,0-.23-.23-.52-.69a11.25,11.25,0,0,0-.78-1.13,1,1,0,0,0-.17-.47,1.15,1.15,0,0,1-.17-.48v-.43a1,1,0,0,1,0-.31.87.87,0,0,0,0-.3,2.46,2.46,0,0,1,.13-.43,1.65,1.65,0,0,0,.13-.43,1.17,1.17,0,0,0,.18-.26.46.46,0,0,1,.17-.22q.09,0,.09-.21c0-.06.21-.26.47-.61a1.76,1.76,0,0,0,.39-.69,8.31,8.31,0,0,1,.91-.69,9.35,9.35,0,0,0,.91-.7,1.92,1.92,0,0,1,.78-.34,3.41,3.41,0,0,1,.78-.17l.51-.18.39-.17a1.08,1.08,0,0,1,.39-.09h.44c.17.12.51.32,1,.61s.81.52.87.69a4.41,4.41,0,0,1,.65.52l1,.95c.37.35.72.68,1,1l.65.64c.23.12.56.26,1,.44a3,3,0,0,0,1,.26c.69.11,2,.27,3.85.47s3.86.43,6,.69l5.92.74c1.85.23,3.12.37,3.81.43a5.19,5.19,0,0,0,1.77.52,13.49,13.49,0,0,0,2,.26,2.47,2.47,0,0,0,1.29.61,7,7,0,0,1,1,.25l.74.35,1.16.56c.41.21.81.39,1.21.57l.87.34a1.12,1.12,0,0,1,.52.22,1.15,1.15,0,0,0,.52.21l.69.87c.23.29.4.43.52.43a6.54,6.54,0,0,0,.47.69,1.71,1.71,0,0,1,.39.7c0,.11,0,.37,0,.77s0,.73,0,.95a1.35,1.35,0,0,0-.26,1v.6a1.36,1.36,0,0,1-.22.43l-.47.78q-.27.44-.57.87a4.65,4.65,0,0,1-.47.6,7.78,7.78,0,0,0-.52.61,7.41,7.41,0,0,1-.52.6c-.29.29-.72.73-1.3,1.3s-.92.93-1,1c-.34.29-1,.79-1.9,1.51s-1.9,1.5-2.94,2.34l-2.94,2.38-1.9,1.55c.11,0,.21.08.3.22a2,2,0,0,0,.3.39,6.29,6.29,0,0,1,.61.39,8.66,8.66,0,0,1,.86.69c.29.26.56.49.82.69a1.14,1.14,0,0,0,.57.31,8,8,0,0,0,1,.73c.46.32.92.65,1.38,1s.91.66,1.34,1a6.22,6.22,0,0,1,.91.69,2,2,0,0,0,.52.52,2.23,2.23,0,0,1,.61.69,5,5,0,0,1,.9.65l1.13,1c.37.32.7.62,1,.91a3.49,3.49,0,0,1,.52.6,1,1,0,0,0,.3.52l.65.74.65.73a1.2,1.2,0,0,1,.3.44,4.16,4.16,0,0,1,.52,1,1.72,1.72,0,0,0-.08.44v1.55a2.69,2.69,0,0,0-.61.74,8.48,8.48,0,0,1-.6.82,5.86,5.86,0,0,1-1,.91,5.39,5.39,0,0,1-1.13.73,2.75,2.75,0,0,1-.86.44c-.46.17-.75.28-.87.34H-569a1.84,1.84,0,0,1-.39,0,2,2,0,0,0-.39,0,8.36,8.36,0,0,1-.78-1q-.52-.69-1.08-1.38t-1.08-1.38a10.75,10.75,0,0,0-.78-.95c-.12,0-.39-.19-.82-.57l-1.17-1c0-.12-.15-.29-.43-.52s-.44-.4-.44-.52a12.29,12.29,0,0,1-1.16-.82c-.5-.38-1-.74-1.48-1.08l-1.29-.91a6.55,6.55,0,0,1-.65-.48,7.18,7.18,0,0,1-.78-.47l-1.34-.87c-.49-.31-.95-.59-1.38-.82a9.12,9.12,0,0,1-.91-.52,1.2,1.2,0,0,0-.44-.26,1,1,0,0,1-.43-.26l-.52-.26a1,1,0,0,0-.47.18,2.21,2.21,0,0,0-.48.34,2.29,2.29,0,0,0-.95.52,2.17,2.17,0,0,1-1,.52,2.39,2.39,0,0,0-.52.43,2.53,2.53,0,0,1-.52.44,3.1,3.1,0,0,0-.34,1c-.12.49-.24,1-.35,1.51s-.22,1-.3,1.47a8.66,8.66,0,0,1-.22,1,1.77,1.77,0,0,1-.13.43c-.09.23-.17.47-.26.73a7.13,7.13,0,0,1-.3.74,1.31,1.31,0,0,0-.17.43c-.06.12-.16.35-.31.69s-.29.71-.43,1.08-.29.74-.43,1.09-.25.57-.31.69l-.43.43a1.6,1.6,0,0,0-.43.43l.35-2.68a9.29,9.29,0,0,0-.61,1.26,11,11,0,0,0-.52,1.34,8.34,8.34,0,0,1-.13,1.08c-.09.54-.17,1.11-.26,1.68s-.17,1.14-.26,1.69a10.78,10.78,0,0,0-.13,1.08l-.69-.86Zm2.77-35c0,.34.2,1,.43,1.94s.46,2,.69,3.07.46,2.12.69,3.07.41,1.6.52,1.95a4.2,4.2,0,0,1,.22.65A8.91,8.91,0,0,1-591,206c.05.4.09.78.12,1.12s.05.55.05.61l.26.78.17.52h.78c.23,0,.63,0,1.21,0s1.2.07,1.86.13,1.28.1,1.86.13a9.44,9.44,0,0,1,1.3.13l.86-.43c.17-.12.45-.32.82-.61s.78-.57,1.21-.86.85-.57,1.26-.83l.86-.56c.29-.23.77-.63,1.43-1.21s1.37-1.17,2.12-1.77l2.08-1.69,1.38-1.12c.11,0,.24-.15.39-.44a2.38,2.38,0,0,1,.39-.6q-.18,0-.48-.39a1.21,1.21,0,0,1-.3-.56,2.19,2.19,0,0,1-.95-.56,2.15,2.15,0,0,0-1-.57,1.81,1.81,0,0,0-.57-.21,10.5,10.5,0,0,1-1-.35c-.38-.14-.78-.29-1.21-.43a3.21,3.21,0,0,1-1-.48c-.29-.05-.68-.16-1.17-.3a5.6,5.6,0,0,0-.9-.22c-.29-.05-.55-.11-.78-.17a8.2,8.2,0,0,0-1.13-.17h-1.81c-.24.06-.39.26-.48.6a1.6,1.6,0,0,1-.3.69,3.44,3.44,0,0,1-.22.78,3.74,3.74,0,0,0-.22.78h-.34a12.17,12.17,0,0,0-.22-1.6,12.69,12.69,0,0,1-.21-1.68v-.18a.26.26,0,0,0-.09-.17h-.69c-.06.17-.2.62-.43,1.34a6.17,6.17,0,0,0-.35,1.34,2.12,2.12,0,0,1-.26.87,2.08,2.08,0,0,0-.26.69h-.35l-.26-.26c0-.06,0-.3-.08-.74a7.6,7.6,0,0,1-.09-.91,3.34,3.34,0,0,1-.13-1.38,3.18,3.18,0,0,0-.13-1.38l-5.45-.35Z" transform="translate(667.94 50.84)"/><path class="b" d="M-543,230.6a12.17,12.17,0,0,1-.22,1.6,9.12,9.12,0,0,1-.39,1.69l-.43.78-.78-.44V228.7a3.93,3.93,0,0,0-.73-.22c-.38-.08-.77-.19-1.17-.3s-.79-.22-1.17-.3-.65-.16-.82-.22a1.9,1.9,0,0,1-.56-.13l-.82-.3a7.47,7.47,0,0,0-.87-.3,3.86,3.86,0,0,1-.6-.22,2.85,2.85,0,0,1-.82-.3l-1-.48a2.06,2.06,0,0,0-.61-.52,5.35,5.35,0,0,1-.69-.52,8.12,8.12,0,0,0-1-.78,4.79,4.79,0,0,0-.86-.52,12.78,12.78,0,0,0-.91-1,3.1,3.1,0,0,0-1.08-.87,2.59,2.59,0,0,0-.56-.86,9.1,9.1,0,0,1-.82-1.13,3.16,3.16,0,0,1-.48-.69,3.65,3.65,0,0,0-.47-.69c-.06-.12-.16-.3-.31-.56a7.08,7.08,0,0,1-.39-.87A5.22,5.22,0,0,0-562,216a2.59,2.59,0,0,0-.3-.48,6.36,6.36,0,0,1-.47-1.34c-.21-.72-.37-1.22-.48-1.51a13.41,13.41,0,0,0-.17-1.34,11.81,11.81,0,0,1-.18-1.35v-4.67a10.46,10.46,0,0,1,.18-1.12,10.16,10.16,0,0,0,.17-1.21c.11-.35.27-.88.48-1.6a10.53,10.53,0,0,1,.47-1.43c.06,0,.16-.11.3-.34a4.06,4.06,0,0,0,.39-.78q.18-.44.39-.87a5.68,5.68,0,0,0,.31-.69,4.5,4.5,0,0,0,.47-.69,1.63,1.63,0,0,1,.48-.61c.17-.23.44-.59.82-1.08a2.77,2.77,0,0,0,.56-.91l.74-.69a6,6,0,0,1,.82-.69q0-.18.69-.69a3.48,3.48,0,0,1,1-.61l1.38-1c.29-.11.79-.34,1.52-.69s1.16-.55,1.34-.6a2.53,2.53,0,0,0,.73-.26,2.91,2.91,0,0,0,.74-.44,4.15,4.15,0,0,0,1.08-.17,4.79,4.79,0,0,1,.82-.17h5.1l1.17.17a10.68,10.68,0,0,0,1.69.17,4.94,4.94,0,0,0,1.21.44,8,8,0,0,0,1.12.26,6.27,6.27,0,0,1,1.34.38l1.34.48.7.35c.34.17.72.34,1.12.52s.79.36,1.17.56a6.52,6.52,0,0,0,.82.39c.17.11.43.27.78.47s.52.36.52.48c.17.17.52.49,1,1a3.61,3.61,0,0,1,.86.95,5.72,5.72,0,0,1,.61.91,3.17,3.17,0,0,1,.43.91v2.85a5.79,5.79,0,0,0-.17.61,2.26,2.26,0,0,1-.22.47l-.22.39a1.67,1.67,0,0,1-.13.44.71.71,0,0,1-.3.43c-.06.11-.26.42-.61.91a7,7,0,0,1-.69.9l-.69.78q-.52.62-.69.78a11.6,11.6,0,0,0-1.08.69c-.49.35-.8.55-.91.61s-.12.16-.35.3a7.83,7.83,0,0,1-.77.43l-.87.44a7.25,7.25,0,0,1-.69.3,3.64,3.64,0,0,0-.74.17,3.05,3.05,0,0,1-.82.18,5.85,5.85,0,0,1-.95.34,3.41,3.41,0,0,1-.78.17,8.88,8.88,0,0,0-1,.09c-.46.06-1,.1-1.47.13s-1,.07-1.43.13-.71.09-.82.09h-4.67c-.17,0-.59,0-1.25-.09s-1.38-.1-2.12-.13-1.45-.07-2.08-.13l-1.12-.09h-1.48a3.06,3.06,0,0,0,.22.74,3.17,3.17,0,0,1,.22.73q.16.27.69,1.35c.35.72.58,1.16.69,1.34a6.67,6.67,0,0,0,.56.86,1.76,1.76,0,0,1,.39.69,5.49,5.49,0,0,1,.78.7l1.13,1.12c.4.4.79.78,1.16,1.12a8,8,0,0,0,.83.7c0,.11.18.29.56.51l.82.52,1.38.7a10,10,0,0,0,1.39.6,2.85,2.85,0,0,1,.6.22,2.51,2.51,0,0,0,.69.21A6.79,6.79,0,0,0-542,221a3.91,3.91,0,0,1,1.39.3h2.76a2.63,2.63,0,0,1,1-.3,2.79,2.79,0,0,0,1-.31l.43-.43v-5.53c.06-.18.11-.38.17-.61l.17-.48q.09-.21.18-.39a.25.25,0,0,0,.08-.17.36.36,0,0,1,.09-.26,2.26,2.26,0,0,0,.17-.43l2.34-2.34a4.14,4.14,0,0,1,.91-.51l1.08-.52h.78a7.41,7.41,0,0,0,.6.52c.29.23.44.4.44.51a4.3,4.3,0,0,1,.21,1,5.07,5.07,0,0,0,.3,1.3v3.2a4.94,4.94,0,0,0-.3,1.21c-.09.58-.16,1-.21,1.13a2,2,0,0,1-.18.47c-.11.26-.24.54-.39.82s-.3.58-.47.87a3.08,3.08,0,0,1-.44.6,4.12,4.12,0,0,1-.43.83c-.23.37-.37.56-.43.56l-.65.65c-.32.31-.65.65-1,1l-1,1a5.89,5.89,0,0,1-.73.64c0,.12-.18.29-.52.52l-.78.52-.91.44-.91.43a3.58,3.58,0,0,0-1.25.43,4.75,4.75,0,0,0-1.08.61.94.94,0,0,0-.48.21,1,1,0,0,1-.47.22c0,.34,0,1-.05,1.81s-.07,1.81-.13,2.82-.13,2-.21,2.85-.16,1.51-.22,1.86a9.08,9.08,0,0,1-.13,1.12,5.05,5.05,0,0,1-.3,1.22,1.56,1.56,0,0,1-.18.43,1.61,1.61,0,0,0-.17.43,3.72,3.72,0,0,1-.34-1.12,7.14,7.14,0,0,1-.18-1.22c0-.34,0-.9-.08-1.68s-.11-1.62-.13-2.51-.08-1.73-.13-2.51S-543,230.89-543,230.6Zm-13.23-30.19.77.05,1.3.08,1.34.09c.44,0,.74,0,.91,0l.69.18a5.18,5.18,0,0,1,.61.17,13.5,13.5,0,0,0,2,.34q1.42.18,1.86.18H-536l1.73-.52a13.43,13.43,0,0,0-1-1.13c-.58-.57-1-1-1.3-1.21a4.57,4.57,0,0,0-.52-.34,11.78,11.78,0,0,0-1-.56c-.4-.21-.79-.39-1.16-.57a6.11,6.11,0,0,0-.91-.34,3,3,0,0,1-.48-.13l-.86-.31-.87-.3A2.4,2.4,0,0,0-543,196c-.29-.11-.72-.26-1.3-.43a6.11,6.11,0,0,0-1-.26h-7c-.17.12-.49.32-.95.61a2.57,2.57,0,0,1-1,.43l-.26.26a.24.24,0,0,0-.09.17.08.08,0,0,1-.09.09,4,4,0,0,0-.52.91,3.53,3.53,0,0,1-.52.9,6.05,6.05,0,0,0-.21.7q-.14.51-.3.6Z" transform="translate(667.94 50.84)"/><path class="b" d="M-504.32,229.56h-1.21c0,.12,0,.33,0,.65s-.07.68-.13,1.08-.1.8-.13,1.17,0,.65,0,.82a2.83,2.83,0,0,0-.18.56c-.05.26-.11.54-.17.83s-.11.6-.17,1h-.43q-.09-.44-.18-.78a5.51,5.51,0,0,0-.21-.65c-.09-.2-.16-.36-.22-.47a7.6,7.6,0,0,0-.09-.91c-.05-.44-.1-.9-.13-1.39s-.07-1-.13-1.42-.08-.78-.08-1l-.35-.43-1.25-.6a4.92,4.92,0,0,0-1.08-.44,7.55,7.55,0,0,1-1.52-.6c-.72-.35-1.16-.58-1.34-.69a3.37,3.37,0,0,0-.47-.35l-.83-.56c-.28-.2-.57-.39-.86-.56a3.61,3.61,0,0,1-.61-.44c-.17-.11-.52-.36-1-.73a3.87,3.87,0,0,1-.87-.74l-.65-.65-1-.95c-.35-.31-.68-.63-1-1a5.48,5.48,0,0,0-.73-.65,8.27,8.27,0,0,1-.78-1.12,5,5,0,0,0-.95-1.21,8.45,8.45,0,0,1-.61-.74,1.84,1.84,0,0,1-.43-.73,7.88,7.88,0,0,1-.48-1c-.2-.47-.43-.94-.69-1.43l-.73-1.39a8.23,8.23,0,0,1-.44-.9,1.89,1.89,0,0,1-.21-.61,1.6,1.6,0,0,0-.3-.69c0-.12,0-.3-.05-.56s-.07-.54-.13-.83-.11-.6-.17-.95V203.7a6.7,6.7,0,0,1,.17-.91,5.65,5.65,0,0,0,.18-.91c.11-.17.35-.62.73-1.34s.65-1.22.82-1.51a1.64,1.64,0,0,1,.39-.69,1.76,1.76,0,0,0,.39-.69l1.38-1.39c.7-.69,1.19-1.15,1.48-1.38l.73-.43c.37-.23.62-.38.74-.44a3.14,3.14,0,0,1,.6-.43q.43-.26.87-.48l.77-.38a1.46,1.46,0,0,1,.44-.18c.23,0,.59-.16,1.08-.3a5.37,5.37,0,0,1,.91-.22h4.67c.05,0,.34.08.86.22l1,.3a4.58,4.58,0,0,0,.61.22l.86.26c.29.08.56.16.82.21a3.23,3.23,0,0,0,.48.09,8.74,8.74,0,0,0,.95.52,8.74,8.74,0,0,1,.95.52,8.44,8.44,0,0,0,1.39,1,9.25,9.25,0,0,1,1.38,1c.06.06.45.37,1.17,1s1.28,1,1.68,1.38l.35.35a12.29,12.29,0,0,1,.91,1.08,2.77,2.77,0,0,1,.56.91.94.94,0,0,0,.13.43c.09.17.19.35.3.52a4.42,4.42,0,0,0,.44.69v1.56a3.13,3.13,0,0,1-.39.91l-.48.91a2.66,2.66,0,0,1-.43.52l-.74.73c-.26.26-.5.49-.73.69l-.44.39a3,3,0,0,1-.86.48,7.47,7.47,0,0,0-.95.47h-.95a2.74,2.74,0,0,1-.87-.17,1.11,1.11,0,0,1-.52-.26,1.35,1.35,0,0,1-.65-.43,1.31,1.31,0,0,1-.3-.43,2.4,2.4,0,0,1-.17-1,2.35,2.35,0,0,1,.17-1,3.15,3.15,0,0,1-.56-.48c-.26-.26-.53-.55-.82-.86a7.4,7.4,0,0,0-.87-.83c-.29-.23-.52-.4-.69-.52s-.52-.41-1.21-.9l-1.56-1.09c-.17-.11-.49-.28-.95-.51s-.78-.41-1-.52h-.43a10.9,10.9,0,0,1-.18,1.6,12.47,12.47,0,0,0-.17,1.42,1,1,0,0,0-.26.18.22.22,0,0,1-.17.08.08.08,0,0,0-.09.09l-.26.17c-.11,0-.17,0-.17-.08v-.09c-.12,0-.22-.14-.3-.43a1.49,1.49,0,0,0-.31-.61s0-.24-.08-.56-.1-.65-.13-1-.08-.67-.13-1a3.43,3.43,0,0,1-.09-.6,13.57,13.57,0,0,0-1.34-.3,8.56,8.56,0,0,0-1.51-.22h-.35a4.48,4.48,0,0,0-.91.22l-1.08.3v4.15a3.36,3.36,0,0,0,.22,1q.21.65.3,1l2.34,4.67a2.08,2.08,0,0,1,.51.61,6.5,6.5,0,0,0,.52.69,16.92,16.92,0,0,0,1.17,1.25l1.73,1.73,1.69,1.69,1,1a1.21,1.21,0,0,1,.43.26l.78.6c.29.23.57.45.86.65a6.29,6.29,0,0,0,.61.39l1.38.69a8.47,8.47,0,0,0,1.39.61,2.75,2.75,0,0,1,.82.21,2.61,2.61,0,0,0,.73.22h.78v-.43a1.33,1.33,0,0,0-.21-.43,1.25,1.25,0,0,1-.22-.44v-2A2.31,2.31,0,0,1-503,217a2.33,2.33,0,0,0,.21-.69l.52-.48c.29-.26.58-.53.87-.82l.86-.86a5.75,5.75,0,0,1,.69-.61l.48-.22a1.27,1.27,0,0,0,.47-.3H-497c.06,0,.13.08.22.22a.72.72,0,0,0,.3.3c.06.12.17.35.35.69s.35.72.56,1.13.39.79.56,1.17.29.64.35.82a3.74,3.74,0,0,1,.3.6,2.51,2.51,0,0,1,.21.69V222a3,3,0,0,1-.21.6l-.3.7a.53.53,0,0,1-.09.3,1.69,1.69,0,0,0-.17.3,3.11,3.11,0,0,1-.18.43,3.73,3.73,0,0,0-.69.87c-.34.52-.58.86-.69,1a.35.35,0,0,0-.3.21c-.09.15-.16.22-.22.22a4.34,4.34,0,0,1-.91.78,2.9,2.9,0,0,1-.91.52,1.59,1.59,0,0,1-.47.3,1.8,1.8,0,0,0-.48.3,3.78,3.78,0,0,0-1.12.39l-1.21.56c0,.35,0,1-.05,1.91s-.07,1.9-.13,2.94-.13,2-.21,2.94-.16,1.55-.22,1.9a6.94,6.94,0,0,1-.13.91,4.16,4.16,0,0,1-.3,1.08l-.35.35-.78-.87Z" transform="translate(667.94 50.84)"/><path class="b" d="M-479.84,227.4a5.11,5.11,0,0,1-1.38-.39,5.15,5.15,0,0,0-1.39-.39l-.64-.34c-.32-.18-.68-.36-1.09-.57l-1.16-.56a2.68,2.68,0,0,1-.74-.43c-.17-.12-.45-.29-.82-.52a3.78,3.78,0,0,1-.73-.52,5,5,0,0,1-.83-.78l-1.21-1.29-1.25-1.35c-.41-.43-.69-.73-.87-.9-.06,0-.2-.16-.43-.48a2.61,2.61,0,0,1-.43-.82,6,6,0,0,1-.43-.78l-.57-1.08c-.2-.37-.39-.74-.56-1.08a7.51,7.51,0,0,0-.43-.78,2.92,2.92,0,0,0-.17-.69,3.54,3.54,0,0,1-.18-.61v-6.66a2.64,2.64,0,0,1,.09-.43c.06-.23.13-.49.22-.78s.17-.57.25-.86a1.49,1.49,0,0,1,.31-.61,1.19,1.19,0,0,1,.21-.52,1.08,1.08,0,0,0,.22-.52c.06-.11.19-.33.39-.65s.42-.63.65-.95l.86-1.17.48-.47c.26-.26.53-.55.82-.87s.58-.61.87-.9l.6-.61c.17-.11.49-.35.95-.69s.78-.58,1-.69l.78-.48c.35-.2.72-.4,1.13-.61s.78-.38,1.12-.56a6.12,6.12,0,0,1,.78-.34,4.61,4.61,0,0,0,1-.18,5.14,5.14,0,0,1,.95-.17h5.63a5,5,0,0,1,.82.17,4,4,0,0,0,1,.18,1.13,1.13,0,0,1,.43.26,1.48,1.48,0,0,1,.44.43,2.55,2.55,0,0,1,.91.6c.37.35.56.58.56.7a3.53,3.53,0,0,0,.08.43,5.27,5.27,0,0,1,.13.73c0,.26.08.51.13.74a1,1,0,0,0,.18.43,5.24,5.24,0,0,0,.39.65c.2.32.43.66.69,1l.73,1a6.58,6.58,0,0,0,.52.64,3.47,3.47,0,0,1,.69,1c.35.64.58,1.07.7,1.3.23.4.54,1.05.95,2s.66,1.45.78,1.68a11.69,11.69,0,0,1,.6,1.34,5.62,5.62,0,0,1,.43,1.34c.06.35.16.81.31,1.39s.21.89.21.95v3.37a3.89,3.89,0,0,1-.21.83,7.52,7.52,0,0,0-.31,1.16,3.16,3.16,0,0,1-.21.61,2.23,2.23,0,0,0-.22.69,1.15,1.15,0,0,1-.21.52,4.08,4.08,0,0,1-.39.52,2.66,2.66,0,0,1-.31.6,4.24,4.24,0,0,1-.47.7,5,5,0,0,0-.87,1l-.69.95-.43.43a3.24,3.24,0,0,1-.87.69l-1,.7a7.15,7.15,0,0,1-.69.56,2.4,2.4,0,0,1-.6.39,4.24,4.24,0,0,1-1,.52c-.55.23-.82.4-.82.51-.23.06-.45.35-.65.87a3.82,3.82,0,0,0-.3,1h-.61a2.24,2.24,0,0,0-.38-.78,2.15,2.15,0,0,1-.39-.78h-.52a1.38,1.38,0,0,1-.61.3c-.29.09-.43.16-.43.22l-.78,8.48-.17.08h-.26c-.06,0-.09,0-.09-.08a2.64,2.64,0,0,0-.22-.74,2.83,2.83,0,0,1-.21-.73c-.06-.29-.13-.78-.22-1.47s-.16-1.45-.21-2.25-.11-1.58-.13-2.3S-479.84,227.69-479.84,227.4Zm-8.3-20.5a6.43,6.43,0,0,0,.17.91,5.65,5.65,0,0,1,.18.91,3.18,3.18,0,0,1,.43.73c.17.38.36.77.56,1.17l.56,1.12a1.48,1.48,0,0,0,.43.61,3.07,3.07,0,0,0,.61,1,6.07,6.07,0,0,1,.69,1,8.07,8.07,0,0,1,.95.91c.46.49.78.82.95,1a5.54,5.54,0,0,1,1,.74,5.38,5.38,0,0,0,1,.73,2.43,2.43,0,0,1,.57.26c.31.18.67.36,1.08.56s.8.39,1.21.57a2.68,2.68,0,0,0,.86.26,3.12,3.12,0,0,0,.7.43,2.76,2.76,0,0,0,.6.26h.87c.4,0,.82,0,1.25,0s.84,0,1.21,0h.82c0-.18,0-.48,0-.91s-.06-.9-.09-1.39-.07-.93-.13-1.34-.08-.66-.08-.78a2.46,2.46,0,0,0-.13-.43,7.9,7.9,0,0,1-.26-.78,6.21,6.21,0,0,0-.35-.86l-.3-.61q-.09-.16-.3-.69l-.48-1.12c-.17-.41-.34-.8-.52-1.17a6.25,6.25,0,0,0-.43-.82c-.12-.18-.35-.58-.69-1.21a7.93,7.93,0,0,0-.69-1.13l-.74-1a4.76,4.76,0,0,0-.82-.91c0-.12-.13-.27-.39-.48s-.39-.36-.39-.47a7.41,7.41,0,0,0-.3,1.81c-.09.93-.16,1.53-.22,1.82a4.12,4.12,0,0,1-.22,1.08,4.93,4.93,0,0,0-.21.91h-.61A2.33,2.33,0,0,0-480,209a2.83,2.83,0,0,1-.22-.61c0-.17,0-.52-.09-1s-.1-1.06-.13-1.64-.05-1.12-.08-1.64-.05-.87-.05-1-.21-.26-.3-.61a4.66,4.66,0,0,0-.21-.69l-.44-.35-.26-.25-.17.17a.24.24,0,0,1-.17.08,2.43,2.43,0,0,1-.61.44,1.82,1.82,0,0,1-.3.13.54.54,0,0,0-.22.13c-.11.05-.17.11-.17.17a1.08,1.08,0,0,0-.52.22,1.15,1.15,0,0,1-.52.21h-1.3l-.43-.43a.86.86,0,0,1-.3-.48q-.13-.39-.3-.39t-.48.39a1.9,1.9,0,0,1-.47.48c-.06.17-.12.38-.18.61a5.78,5.78,0,0,0-.17.86v3.2Z" transform="translate(667.94 50.84)"/><path class="b" d="M-457.65,227.88c-.15.08-.22.15-.22.21a7.67,7.67,0,0,0-.39,1.39,8.79,8.79,0,0,0-.21,1.38l-.43-.78a12.14,12.14,0,0,0-.18-1.47,4.46,4.46,0,0,0-.34-1.38,4,4,0,0,0-.39-1,4,4,0,0,1-.39-1c-.12,0-.25-.2-.39-.61a3,3,0,0,1-.22-.78,3.43,3.43,0,0,1-.21-.73c-.09-.38-.18-.76-.26-1.17s-.18-.76-.26-1.08a4.2,4.2,0,0,0-.22-.65,8.88,8.88,0,0,0-.09-.95c0-.46-.13-1-.21-1.51s-.18-1.07-.26-1.56-.16-.85-.22-1.08-.19-1-.39-2.16-.42-2.41-.65-3.77-.43-2.62-.6-3.8-.26-1.92-.26-2.21a4.12,4.12,0,0,1-.22-.82c-.08-.43-.18-.91-.3-1.43s-.22-1-.3-1.47a8.33,8.33,0,0,0-.22-1,2.66,2.66,0,0,0-.22-.6,2.45,2.45,0,0,1-.21-.7q-.09,0-.48-.6a2.23,2.23,0,0,1-.39-.78v-2.34a2.83,2.83,0,0,1,.18-.69,4.18,4.18,0,0,0,.17-.6,3.74,3.74,0,0,0,.48-.74,3.67,3.67,0,0,1,.47-.73,9,9,0,0,1,.69-.83l.7-.73.77-.43a2.53,2.53,0,0,1,.78-.35c0-.06.17-.13.52-.22a2.26,2.26,0,0,0,.78-.3h.43c.12.12.29.28.52.48l.52.47a3.41,3.41,0,0,1,.17.44,3.3,3.3,0,0,1,.18.6,1.1,1.1,0,0,1,.34.61,2.63,2.63,0,0,1,.18.69q.07.26.21.78t.3,1.08c.12.37.22.73.31,1.08s.15.6.21.78a5.65,5.65,0,0,0,.22,1.21,6.43,6.43,0,0,1,.21,1.12,6.89,6.89,0,0,1,.7-.78c.34-.34.72-.7,1.12-1.08s.78-.73,1.13-1.08a5.94,5.94,0,0,0,.69-.78,2.77,2.77,0,0,0,.91-.6,4.3,4.3,0,0,1,1-.69,9.26,9.26,0,0,0,.87-.61c.23-.17.43-.32.6-.43a6.09,6.09,0,0,1,1.13-.48c.57-.2,1-.36,1.21-.47a5.58,5.58,0,0,1,1.47-.26q1-.09,1.38-.09h.56c.32,0,.65,0,1,0s.66.08.95.13a2.71,2.71,0,0,1,.61.18,2.59,2.59,0,0,1,.95.39c.46.26.78.44.95.56a7.41,7.41,0,0,0,.6.52c.29.23.44.4.44.52v2.68a2.68,2.68,0,0,1-.22.69q-.21.52-.39.6a10.26,10.26,0,0,1-.69,1.09c-.35.49-.55.79-.61.9,0,.47,0,1.23-.08,2.3s-.1,2.19-.13,3.37-.08,2.31-.13,3.37-.09,1.81-.09,2.21c0,.17,0,.46,0,.86s-.08.83-.13,1.26-.13.83-.22,1.21-.16.65-.21.82a4.59,4.59,0,0,1-.22,1.08,4.64,4.64,0,0,0-.22.91V199.2a.5.5,0,0,0-.17-.34.48.48,0,0,1-.17-.35h-1a3.25,3.25,0,0,0-.31.35,2.29,2.29,0,0,1-.3.34,8.22,8.22,0,0,0-.22,1.08,7,7,0,0,1-.13.78,4.32,4.32,0,0,0-.08.48,1.81,1.81,0,0,0-.22.6,3.41,3.41,0,0,0-.13.7.68.68,0,0,1-.52.34l-.43-.78a4.86,4.86,0,0,1-.17-1c-.06-.46-.1-.94-.13-1.43s-.08-1-.13-1.38a5.69,5.69,0,0,0-.18-.91s-.1-.16-.3-.3a1,1,0,0,0-.47-.22h-3.29a4.61,4.61,0,0,1-.61.48c-.29.2-.43.36-.43.47l-.43,1.35c-.23.72-.38,1.16-.43,1.34v10.89c0,.12,0,.42,0,.91s.07,1,.13,1.65.11,1.15.17,1.64a3.67,3.67,0,0,0,.18.91v4.24a1.63,1.63,0,0,0-.26.6q-.09.26-.18.48a1,1,0,0,0-.08.39,1.47,1.47,0,0,1-.22.43,1.61,1.61,0,0,0-.22.43,5,5,0,0,0-.52.74,5,5,0,0,1-.51.73,4.29,4.29,0,0,1-.61,1c-.35.47-.58.78-.69,1-.06.4-.12,1.11-.17,2.11s-.11,2.08-.13,3.2-.08,2.2-.13,3.21-.12,1.71-.18,2.11a7.33,7.33,0,0,1-.08.83,10.54,10.54,0,0,0-.13,1.16c0,.41-.08.78-.13,1.13a4.9,4.9,0,0,0-.09.69,1.61,1.61,0,0,1-.17.43,1,1,0,0,1-.35.44c0-.18-.06-.62-.17-1.35a11.75,11.75,0,0,1-.18-1.34V227.57A.37.37,0,0,1-457.65,227.88Z" transform="translate(667.94 50.84)"/><path class="b" d="M-430.19,228.44a5.25,5.25,0,0,1-.91-.13q-.64-.13-1.29-.3c-.44-.12-.86-.22-1.26-.31a5.87,5.87,0,0,0-.78-.13,2.83,2.83,0,0,1-.73-.21,2.64,2.64,0,0,0-.74-.22l-1-.6a2.42,2.42,0,0,0-.95-.44,5.65,5.65,0,0,1-.69-.43,5.86,5.86,0,0,1-.61-.43,4.16,4.16,0,0,0-.91-1q-.74-.65-1.08-1a1.41,1.41,0,0,1-.43-.52,1.7,1.7,0,0,1-.35-.87,2.31,2.31,0,0,1-.38-.6q-.22-.44-.48-.87a6.52,6.52,0,0,1-.43-.82,1.79,1.79,0,0,0-.26-.47,7.29,7.29,0,0,0-.18-1.13,7.71,7.71,0,0,1-.17-1.21v-2.33a8.2,8.2,0,0,1,.17-1.13,6.94,6.94,0,0,0,.18-1.21,2.85,2.85,0,0,0,.3-.82,4.12,4.12,0,0,1,.22-.74c.11-.17.36-.62.73-1.34s.62-1.16.74-1.34.2-.36.43-.73.37-.56.43-.56a5.42,5.42,0,0,1,.65-.74l1-1c.34-.34.67-.66,1-.95s.56-.52.74-.69a2.6,2.6,0,0,1,.86-.82,2.54,2.54,0,0,1,.87-.48,1.35,1.35,0,0,1,.6-.43l1.13-.56,1.16-.56a6,6,0,0,0,.82-.44,3,3,0,0,0,.74-.17,3.36,3.36,0,0,1,.82-.17,2.17,2.17,0,0,1,.48-.17,2.2,2.2,0,0,0,.56-.26,2.78,2.78,0,0,1,.69-.26h7l.52.08.95.18a6.15,6.15,0,0,1,.91.21,5,5,0,0,1,.56.22,3.47,3.47,0,0,0,.69-.13,4.09,4.09,0,0,1,.61-.13V185.54a9.65,9.65,0,0,1,.21-1.43,8.69,8.69,0,0,0,.22-1.6c.11-.17.29-.48.52-.91s.4-.68.52-.73a3.6,3.6,0,0,1,1-1.22c.64-.57,1.07-1,1.3-1.12,0-.12.13-.23.39-.35a1,1,0,0,0,.48-.34,5.08,5.08,0,0,0,.86-.18,5.79,5.79,0,0,0,.61-.17,2.27,2.27,0,0,1,.47.13c.26.09.39.16.39.22,0,.57,0,1.63.09,3.15s.1,3.15.13,4.85.07,3.31.13,4.84.08,2.58.08,3.16a14.48,14.48,0,0,1,.18,1.51c.05.73.1,1.47.13,2.25s.07,1.52.13,2.21a9.17,9.17,0,0,0,.17,1.38,15.08,15.08,0,0,0,.13,1.56l.3,2.51c.12.92.22,1.8.31,2.64s.15,1.45.21,1.85a10,10,0,0,0,.18,1.56c.11.69.17,1.1.17,1.21s.14.35.43.69.49.58.61.7a2.51,2.51,0,0,0,.21.69,3.08,3.08,0,0,1,.22.6c.06.35.16.88.3,1.6a10.41,10.41,0,0,1,.22,1.43v3.63a2.59,2.59,0,0,1-.22.7q-.21.51-.3.69c0,.12-.15.34-.43.69a2.71,2.71,0,0,1-.61.61q0,.34-.6.9l-.7.65c-.17.12-.37.26-.6.44a9,9,0,0,1-.87.6,1.24,1.24,0,0,0-.43.22,1.44,1.44,0,0,1-.43.21h-1a1.31,1.31,0,0,1-.43-.17,1.32,1.32,0,0,1-.35-.26,1.49,1.49,0,0,1-.3-.69l-.22-.87a5.1,5.1,0,0,0-.21-.9,4.64,4.64,0,0,1-.22-.91,4.35,4.35,0,0,1-.22-.87q-.12-.69-.3-1.47t-.3-1.47a4.18,4.18,0,0,0-.22-.86,1.76,1.76,0,0,0-.17-.44,1.31,1.31,0,0,1-.17-.43,3.82,3.82,0,0,0-.74.82,2.75,2.75,0,0,1-.82.83l-1,1.42c-.41.61-.67.91-.78.91a7.78,7.78,0,0,0-.52.61c-.23.29-.4.43-.52.43a3.32,3.32,0,0,1-.86.69,6.13,6.13,0,0,1-1,.61l-.69.6a2.24,2.24,0,0,1-.61.43l-.69.35c-.35.17-.71.36-1.08.56s-.72.41-1,.61a1.6,1.6,0,0,0-.56.47,2.89,2.89,0,0,0-.18.7c-.05.34-.1.72-.13,1.12s-.05.78-.08,1.12-.05.58-.05.7a1.3,1.3,0,0,1-.17.52,1.4,1.4,0,0,0-.17.51,1.86,1.86,0,0,1-.35-.51,1.5,1.5,0,0,1-.17-.52,7.58,7.58,0,0,1-.43-1.39,6.7,6.7,0,0,1-.26-1.38v10.9h-.43a.73.73,0,0,1-.35-.09c-.06,0-.13-.14-.22-.43a2.89,2.89,0,0,1-.13-.61,5.8,5.8,0,0,1-.34-1.38,10.24,10.24,0,0,1-.18-1.39c0-.28,0-.76-.08-1.42s-.1-1.37-.13-2.12-.08-1.44-.13-2.08S-430.19,228.73-430.19,228.44Zm-6.23-14.88c.12.17.36.62.74,1.34a6.56,6.56,0,0,0,.82,1.34,8.54,8.54,0,0,0,1.21,1.39q1,1,1.56,1.47a4,4,0,0,1,.78.34,5,5,0,0,0,1.12.44,3.24,3.24,0,0,0,.69.43,3,3,0,0,0,.61.26h4.67a3.3,3.3,0,0,0,.91-.43c.49-.29.85-.49,1.08-.61l.48-.48c.2-.2.3-.36.3-.47a7.21,7.21,0,0,0,.39-.61,11,11,0,0,0,.56-1.08c.17-.37.35-.76.52-1.17a5.14,5.14,0,0,1,.43-.86,2.15,2.15,0,0,1,.22-.69,3.16,3.16,0,0,0,.21-.61c.06-.23.16-.56.31-1s.26-.84.34-1.21.18-.72.26-1a3.34,3.34,0,0,0,.13-.57c0-.17,0-.53,0-1.08s.05-.87.05-1c-.18,0-.64,0-1.39-.13s-1.24-.13-1.47-.13a3.16,3.16,0,0,1-.69-.17,8.93,8.93,0,0,0-1.17-.31c-.43-.08-.83-.17-1.21-.26a5.66,5.66,0,0,0-.65-.12,8.14,8.14,0,0,1-.9-.14,7.74,7.74,0,0,0-1.09-.12,6.73,6.73,0,0,0-.95.12,6.22,6.22,0,0,1-.95.14,4.4,4.4,0,0,1-.13.6,1.49,1.49,0,0,1-.3.69h-.35a2.12,2.12,0,0,1-.34-.47,1,1,0,0,1-.18-.48l-.26-.26a.21.21,0,0,0-.17-.08,3.79,3.79,0,0,1-.69-.14,4.05,4.05,0,0,0-.87-.12,3.26,3.26,0,0,0-.73.12,3,3,0,0,1-.65.14,2.48,2.48,0,0,0-.78.3,6.63,6.63,0,0,0-.95.56c-.12,0-.29.12-.52.35a2.39,2.39,0,0,1-.52.43,6.43,6.43,0,0,0-.26.6,1.07,1.07,0,0,1-.26.44v4.32Z" transform="translate(667.94 50.84)"/><path class="b" d="M-382.44,229.13a.56.56,0,0,1-.26,0A.6.6,0,0,0-383,229h-.26c0,.12-.06.18-.17.18s-.18,0-.18.08a9,9,0,0,0-.73,1.34,7.88,7.88,0,0,0-.56,1.35c0-.12,0-.32,0-.61s0-.49,0-.61a3.22,3.22,0,0,1-.17-1c-.06-.64-.09-1.07-.09-1.3a3.17,3.17,0,0,1-.91-.26l-1.34-.52-1.38-.52a3.49,3.49,0,0,0-.95-.26,3.9,3.9,0,0,1-.78-.39c-.35-.2-.72-.43-1.12-.69s-.77-.5-1.09-.73a6.58,6.58,0,0,1-.64-.52,1.2,1.2,0,0,1-.52-.22,8,8,0,0,1-.78-.56c-.29-.23-.56-.43-.82-.61a3.75,3.75,0,0,1-.57-.43,3.24,3.24,0,0,1-.51-.43l-.78-.78c-.18-.23-.42-.56-.74-1a9.49,9.49,0,0,0-.65-.82q-.17-.16-.78-1c-.4-.55-.66-.91-.77-1.08-.12,0-.24-.22-.35-.65s-.2-.77-.26-1a5.86,5.86,0,0,0-.26-1,8.84,8.84,0,0,0-.35-1,5.54,5.54,0,0,0-.08-.82,6,6,0,0,1-.09-.73c.06-.29.12-.55.17-.78s.12-.45.18-.65a2.15,2.15,0,0,0,.08-.48,4.71,4.71,0,0,1,.18-1.12l.17-.69q.09-.18.39-.09a5.65,5.65,0,0,1,.61.22l.6.26a.6.6,0,0,0,.48,0v-.52l-.83-.39q-.64-.3-1.38-.69a15.22,15.22,0,0,1-1.38-.82A1.89,1.89,0,0,1-403,206c-.06,0-.29-.22-.69-.65a5.64,5.64,0,0,1-.78-1,1.25,1.25,0,0,1-.43-.47,1.62,1.62,0,0,1-.26-.48,2.21,2.21,0,0,0-.3-.73c-.21-.38-.34-.62-.39-.74a8.18,8.18,0,0,1-.35-1.25c-.12-.55-.2-.94-.26-1.17a20,20,0,0,1-1.3-8.48,7.64,7.64,0,0,1,2.38-5,8.56,8.56,0,0,1,5.06-1.95,21.17,21.17,0,0,1,6.71.61,35.47,35.47,0,0,1,7.26,2.64,36.61,36.61,0,0,1,6.75,4.19,27.7,27.7,0,0,1,5.19,5.32,14.14,14.14,0,0,1,2.64,5.93.61.61,0,0,0-.09.26v.08l-.09-.08a1.54,1.54,0,0,1-.34-.26l-.35-.18a.4.4,0,0,0-.34,0,4.55,4.55,0,0,1-.44,1.08,4.63,4.63,0,0,0-.43,1.08,4.2,4.2,0,0,1-.56.44,3.7,3.7,0,0,0-.56.43,2.56,2.56,0,0,0-.65.39,7.26,7.26,0,0,0-.74.56,1.32,1.32,0,0,1-.34,0,1.83,1.83,0,0,0-.44,0,1.8,1.8,0,0,1-.6-.09H-378c-.29,0-.46,0-.52-.09h-.52c-.11,0-.16-.07-.13-.21s0-.22-.13-.22c.06-.12,0-.3-.13-.56a1.43,1.43,0,0,1-.21-.57s0-.27-.09-.64a3.33,3.33,0,0,0-.26-.91,2.48,2.48,0,0,0,.78-1.47,3.41,3.41,0,0,0-.17-1.52,3.09,3.09,0,0,0-.78-1.21,2.25,2.25,0,0,0-.95-.56,4.69,4.69,0,0,1-.83-.95c-.49-.63-1-1.31-1.6-2s-1.11-1.39-1.6-2a4.49,4.49,0,0,0-.82-.91c0,.11,0,0-.09-.48s-.11-.62-.17-.56a5.53,5.53,0,0,0-.34,1.21,2.72,2.72,0,0,0-.09.69c-.06.47-.17,1.16-.35,2.08s-.36,1.9-.56,2.94-.39,2-.56,2.94a12.75,12.75,0,0,0-.26,2,9,9,0,0,0,2.42,1.69c1,.49,1.85,1,2.6,1.43a6.78,6.78,0,0,1,1.08.25l2,.57a18.57,18.57,0,0,1,2,.69,3,3,0,0,1,1.21.73,4.61,4.61,0,0,0,.61.48,6.61,6.61,0,0,0,1,.56,9.21,9.21,0,0,1,.91.52,1.28,1.28,0,0,0,.56.26,6,6,0,0,0,1.34,1.08,5.41,5.41,0,0,1,1.25,1l.52.43c.29.23.58.47.87.73l.82.74a3.19,3.19,0,0,0,.56.43c.12.12.29.3.52.56l.74.83c.25.28.5.54.73.77s.4.35.52.35.33.53.82,1.25.85,1.23,1.08,1.52a2.33,2.33,0,0,0,.09.52,2.24,2.24,0,0,1,.09.52,3.73,3.73,0,0,1-.18.43,4.18,4.18,0,0,0-.17.6,1.47,1.47,0,0,0-.09.61,1.6,1.6,0,0,1-.08.6,1.55,1.55,0,0,1-.26.61,4.11,4.11,0,0,1-.35.52c-.12.12-.36.33-.73.65s-.57.53-.57.65a10.65,10.65,0,0,1-1.21.91,10.28,10.28,0,0,0-1.3,1,3.54,3.54,0,0,1-.9.35l-1,.26a3.06,3.06,0,0,1-1,.3,1.84,1.84,0,0,0-.91.3,6.4,6.4,0,0,1-1.56.3,9.55,9.55,0,0,0-1.38.22,3.14,3.14,0,0,0-.91-.09h-3.76l-.61,10.82h-.34c0-.06,0-.22-.05-.48a7.15,7.15,0,0,1,0-.82,3.62,3.62,0,0,1,.09-.82.64.64,0,0,1,.26-.48c-.06-.35-.15-.92-.26-1.73s-.24-1.67-.35-2.59-.2-1.79-.26-2.6a4.77,4.77,0,0,1,.09-1.73Zm-15.66-35.46c-.06.17-.14.52-.26,1s-.17.81-.17.87,0,.42.17.91.32.85.43,1.08a2,2,0,0,0,.91,1.17l1,.65c0,.05.21.18.47.38s.57.44.91.7.68.52,1,.78.53.44.65.56a2.84,2.84,0,0,1,1.47.95,3.39,3.39,0,0,0,1.81,1,1.44,1.44,0,0,1,.13-.61,1.26,1.26,0,0,0,.13-.6c.06-.7.17-1.6.35-2.73s.34-2.25.52-3.37.34-2.12.52-3a14.56,14.56,0,0,0,.25-1.47v-.65c0-.26,0-.38-.12-.38s-.21.23-.35.69a23.87,23.87,0,0,0-.56,2.59l-.52.52a5.12,5.12,0,0,0-.13-.73,4.94,4.94,0,0,1-.13-.65q0-.34.09-.39s.08-.13.08-.3c.52-.29.68-.6.48-.91a2.65,2.65,0,0,0-1.26-.87,7.16,7.16,0,0,0-2.33-.47,10.5,10.5,0,0,0-2.6.13,4.21,4.21,0,0,0-2.07,1A2.61,2.61,0,0,0-398.1,193.67Zm4.93,15.57a.5.5,0,0,1-.17.34l-.17.17a5.71,5.71,0,0,1,.34,1.09,5.56,5.56,0,0,0,.26.9l.52.78c.23.35.49.72.78,1.13s.56.76.82,1.08a9.62,9.62,0,0,0,.65.73,2,2,0,0,0,.48.78,8.84,8.84,0,0,0,.64.78l1.21.78a3.88,3.88,0,0,1,1.22,1,6.12,6.12,0,0,1,1.08.69,2.56,2.56,0,0,0,1.17.61,5.35,5.35,0,0,0,.6.34,2.78,2.78,0,0,0,.95.35,3.85,3.85,0,0,0,1.39.69,4.85,4.85,0,0,0,.95.26,3.58,3.58,0,0,1,.56.13l1.08.26,1.21.26a5.33,5.33,0,0,0,.87.13,3.62,3.62,0,0,1,.56.08l.82.18a5.27,5.27,0,0,0,1,.26l.52-.44a.78.78,0,0,1-.26-.17l-.26-.26a6.61,6.61,0,0,1-.52-.6q-.16-.18-.39-.39a1.42,1.42,0,0,0-.39-.31l-.95-.91c-.46-.43-.75-.7-.86-.82a5,5,0,0,1-.78-.56c-.4-.32-.84-.65-1.3-1l-1.34-1c-.43-.35-.73-.61-.91-.78a1.13,1.13,0,0,1-.39-.22l-.73-.52c-.29-.2-.59-.4-.91-.6a4.2,4.2,0,0,0-.73-.39,7.38,7.38,0,0,1-1.22-.87,5.15,5.15,0,0,0-.95-.69,11,11,0,0,1-1.29-.65c-.58-.31-1.2-.66-1.86-1l-1.91-1.09a11,11,0,0,1-1.34-.86Z" transform="translate(667.94 50.84)"/></svg>