<svg xmlns="http://www.w3.org/2000/svg" viewBox="0 0 331.29 380.72"><defs><style>.a{fill:#fff;}.b{fill:#c63433;}</style></defs><title>logo-footer</title><path class="a" d="M-464.15,420.13a5.6,5.6,0,0,1-1.26,2.17c0,8.76,0,17.53,0,26.29-.05,5.63-.5,11.27-.81,16.9-.09,1.57-.09,3.23,1.25,3.39,1.5.18,1.64-1.6,1.63-3.24,0-.51-.1-1-.14-1.53-.2-2.47-.54-4.94-.55-7.41-.06-10.49,0-21,0-31.48a7.4,7.4,0,0,1,.13-2.53c.46-1,1.2-2.5,1.86-2.54s1.65,1.28,2,2.32a16.79,16.79,0,0,1,.44,4.55c0,3.26-.14,6.54,0,9.79,0,.83.94,1.58,1.44,2.37a16.26,16.26,0,0,0,1.58-2.23,4.85,4.85,0,0,0,.06-1.77c0-8.06-.08-16.11-.1-24.16C-458.92,414.32-462.38,415.54-464.15,420.13Z" transform="translate(742.03 -135.82)"/><path class="a" d="M-635.93,455.92a14.1,14.1,0,0,1,1.09,6.11c0,5.63-.29,11.27-.55,16.91-.09,1.9.46,3.13,2.52,3.11s2.7-1.35,2.44-3.19a24.09,24.09,0,0,1-.71-3.37c0-5.87-.16-11.75.24-17.6a39.13,39.13,0,0,1-5.13-2.15Z" transform="translate(742.03 -135.82)"/><path class="a" d="M-735.14,378.7c-.09,6.87-.86,13.74-1.4,20.61-.15,1.92-.14,3.94,2.16,4.14,2.58.22,2.82-2,2.81-3.95a17.45,17.45,0,0,0-.25-1.87,89.06,89.06,0,0,1-.94-9c-.1-11.45-.06-22.9,0-34.36-.73-1.86-1.48-3.72-2.23-5.57C-735,358.68-735,368.69-735.14,378.7Z" transform="translate(742.03 -135.82)"/><path class="a" d="M-572.08,468.81c.27,3.11,0,6.3.61,9.33a4.84,4.84,0,0,0,3.2,3c.83.17,2.65-1.54,3-2.72a26,26,0,0,0,.57-6.51,20.57,20.57,0,0,1,1.24-6.51q-4.63-.24-9.32-.76A24.52,24.52,0,0,1-572.08,468.81Z" transform="translate(742.03 -135.82)"/><path class="a" d="M-509.09,452.36v5.08H-508q.33-4.73.66-9.48c-.6.35-1.21.68-1.81,1C-509.1,449.84-509.09,451-509.09,452.36Z" transform="translate(742.03 -135.82)"/><path class="a" d="M-424.08,363.34c-.44-2.36-.81-4.73-1.07-7.13-1.07,7.26-3.26,14.46-7.49,20.26.09,4.31.12,8.62.06,12.93-.12,8.14-.72,16.27-.92,24.41,0,1.48.4,3.58,1.41,4.35,2.1,1.6,4.47-.38,4.08-3.41s-1.58-5.73-1.64-8.6c-.2-10.49-.36-21,0-31.46C-429.44,369.63-427.41,365.76-424.08,363.34Z" transform="translate(742.03 -135.82)"/><path class="a" d="M-697.62,409.26v0c-.19-.61-.36-1.23-.52-1.85a14.39,14.39,0,0,1-6.18-8.05h-8c3.93,3.05,4.32,7.63,4.32,12.44,0,14.46.1,28.93,0,43.39-.07,6.28-.6,12.55-1,18.83-.1,1.75-.1,3.6,1.5,3.78,1.79.2,2-1.79,1.95-3.62,0-.56-.12-1.13-.17-1.7-.23-2.75-.64-5.5-.66-8.25-.07-11.69,0-23.37,0-35.06a7.8,7.8,0,0,1,.15-2.82c.56-1.16,1.44-2.78,2.23-2.83s2,1.42,2.36,2.58a17.44,17.44,0,0,1,.52,5.07c0,3.64-.16,7.28,0,10.9,0,.93,1.12,1.76,1.73,2.64a17,17,0,0,0,1.87-2.48,5,5,0,0,0,.09-2C-697.52,429.91-697.59,419.59-697.62,409.26Z" transform="translate(742.03 -135.82)"/><path class="a" d="M-613.5,464.27c.36,7.64.52,15.3.41,22.94-.12,8.14-.73,16.27-.93,24.41,0,1.48.41,3.58,1.42,4.36,2.09,1.59,4.46-.38,4.08-3.41s-1.59-5.73-1.64-8.61c-.2-10.48-.37-21,0-31.46a15.23,15.23,0,0,1,2.79-8.61q-3.15-.52-6.31-1.09A12.23,12.23,0,0,1-613.5,464.27Z" transform="translate(742.03 -135.82)"/><path class="a" d="M-649.93,450.31H-653A56.94,56.94,0,0,0-650,461.16h0c0-.22,0-.45,0-.68a9.72,9.72,0,0,1,.67-4.29,7.72,7.72,0,0,1,2.59-3.05A24.7,24.7,0,0,1-649.93,450.31Z" transform="translate(742.03 -135.82)"/><path class="a" d="M-643.49,225.8c11.77,1,16.38.77,21.5.13l1-1v.89c3.2-.51,7.3-1.15,14-1.66l-12.8,12.67a147.22,147.22,0,0,0,11.52,36c5.5,11.9,8.19,20.09,8.19,24.44l-1.79,1.8a173,173,0,0,1,17.53-1h9.47l-26.36,26.37h-9.34A201.78,201.78,0,0,0-636.71,326a173.24,173.24,0,0,1-20.86,1.79L-633,303.1c-5.76-14.84-13.82-34.55-14.2-50.93-5.51.89-9.86,1-22.65,0Z" transform="translate(742.03 -135.82)"/><path class="b" d="M-623.78,185.36c13.69-7.8,26.62-9.21,39.54-7.29l15.49-15.49q11.32,9.22,22.65,26.5c14.33,5.11,29.69,10.36,46.71,12l21,2.17c8.95,1,16.89.39,23.8-1.79l12.67-12.67a14.87,14.87,0,0,1-4.1,7.81l-26.36,26.49c-11.26,11.26-40.82,5.88-53.49,4.35h-.9c12.8,32.38,20.09,68.59,18.43,93.68l-26.49,26.36c0,.13-1.41-1.66-4.22-5.25-5.63-7.16-13.57-16.12-21.12-21.88-3.84-2.82-6.78-3.46-8.83-1.79l26.49-26.49a5.28,5.28,0,0,1,1.28-.64c-6.65-26.62-17.53-54.39-31.35-75.89-27.26-9.73-51.45-19.07-77.68-3.84Z" transform="translate(742.03 -135.82)"/><path class="a" d="M-688,398.94l-1,.13a11.31,11.31,0,0,1-1.31.13,5.45,5.45,0,0,0-.44-.61,1.81,1.81,0,0,1-.35-.52l.79-5.51a5.81,5.81,0,0,0-1-.43c-.49-.18-.8-.29-.92-.35a2.89,2.89,0,0,1-.83-.83,3.79,3.79,0,0,1-.48-.74v-1c.06-.24.13-.5.22-.79a2.69,2.69,0,0,0,.13-.52,2.43,2.43,0,0,1,.09-.61,2.19,2.19,0,0,1,.35-.88c.06-.06.26-.33.61-.83a3.48,3.48,0,0,1,.7-.83c.12-.17.26-.38.44-.61l.3-.48a1.72,1.72,0,0,1,.31-.39v-1.14a3,3,0,0,1,.17-.79l.18-.52a6.17,6.17,0,0,0-.22-1c-.15-.52-.28-1-.39-1.31a2.9,2.9,0,0,0-.14-1.57c-.2-.88-.33-1.52-.39-1.93,0-.11,0-.35.05-.69s0-.56-.05-.62a5.3,5.3,0,0,1-.35-1c-.12-.44-.23-.84-.35-1.22s-.2-.73-.26-1.05a5.23,5.23,0,0,1-.09-.57c-.11-.29-.32-.77-.61-1.44s-.58-1.38-.87-2.14-.57-1.46-.83-2.1a8,8,0,0,1-.48-1.4,2.35,2.35,0,0,0-.48-1c-.32-.46-.54-.7-.66-.7a5.92,5.92,0,0,0-.7-.52l-1.13-.74-1.14-.75a2.55,2.55,0,0,0-.61-.35c-.06,0-.23-.23-.52-.69a11.94,11.94,0,0,0-.79-1.14,1,1,0,0,0-.18-.48,1.11,1.11,0,0,1-.17-.48v-.44a.91.91,0,0,1,0-.3,1,1,0,0,0,0-.31,1.79,1.79,0,0,1,.13-.44,1.65,1.65,0,0,0,.13-.43.84.84,0,0,0,.17-.27.49.49,0,0,1,.18-.21c.06,0,.09-.1.09-.22s.21-.26.48-.61a1.77,1.77,0,0,0,.39-.7,8.7,8.7,0,0,1,.92-.7,8.17,8.17,0,0,0,.91-.7,2,2,0,0,1,.79-.35,3.56,3.56,0,0,1,.79-.17l.52-.18a3.52,3.52,0,0,1,.39-.17,1.08,1.08,0,0,1,.4-.09h.43c.18.12.53.32,1,.61s.82.52.88.7a4.41,4.41,0,0,1,.65.52l1,1c.38.35.73.69,1,1l.65.65c.24.12.57.27,1,.44a2.86,2.86,0,0,0,1,.26c.7.12,2,.28,3.89.48s3.9.44,6,.7l6,.75c1.87.23,3.15.37,3.85.43a5.21,5.21,0,0,0,1.79.53,13.73,13.73,0,0,0,2,.26,2.55,2.55,0,0,0,1.31.61,6.7,6.7,0,0,1,1,.26l.74.35,1.18.57,1.23.57c.4.17.69.29.87.35a1.19,1.19,0,0,1,.52.21,1.15,1.15,0,0,0,.53.22c.23.3.46.59.7.88s.4.43.52.43a6.4,6.4,0,0,0,.48.7,1.77,1.77,0,0,1,.39.7c0,.12,0,.38,0,.79s0,.73,0,1a1.31,1.31,0,0,0-.27,1v.61a1.34,1.34,0,0,1-.21.44q-.22.35-.48.78c-.18.3-.37.59-.57.88a7.3,7.3,0,0,1-.48.61c-.12.12-.29.32-.53.61s-.41.5-.52.61c-.29.3-.73.73-1.31,1.31s-.93.94-1.05,1.05q-.52.44-1.92,1.53l-3,2.36-3,2.4c-.94.76-1.58,1.28-1.92,1.57.11,0,.21.08.3.22a2,2,0,0,0,.31.4,5.6,5.6,0,0,1,.61.39,8.89,8.89,0,0,1,.87.7c.29.26.57.49.83.7a1.18,1.18,0,0,0,.57.3,6.4,6.4,0,0,0,1,.75c.47.32.93.65,1.4,1s.92.67,1.35,1a6.34,6.34,0,0,1,.92.7,2,2,0,0,0,.52.52,2.42,2.42,0,0,1,.62.7,5.57,5.57,0,0,1,.91.66l1.14,1c.38.32.71.63,1,.92a3.28,3.28,0,0,1,.53.61,1,1,0,0,0,.3.52l.66.74.65.75a1.25,1.25,0,0,1,.31.43,4.27,4.27,0,0,1,.52,1,1.72,1.72,0,0,0-.08.44v1.57a2.69,2.69,0,0,0-.61.74,6.24,6.24,0,0,1-.62.83,5.09,5.09,0,0,1-1,.92,5.67,5.67,0,0,1-1.14.74,2.75,2.75,0,0,1-.87.44c-.47.18-.76.29-.88.35h-.78a2,2,0,0,1-.4,0,1.89,1.89,0,0,0-.39-.05,8.33,8.33,0,0,1-.79-1c-.35-.46-.71-.93-1.09-1.4s-.74-.93-1.09-1.39a8.33,8.33,0,0,0-.79-1,2.35,2.35,0,0,1-.83-.57c-.43-.38-.83-.72-1.18-1,0-.11-.14-.29-.43-.52s-.44-.41-.44-.52c-.29-.18-.69-.46-1.18-.84s-1-.74-1.48-1.09l-1.32-.91c-.37-.27-.59-.43-.65-.49a7,7,0,0,1-.79-.48l-1.35-.87c-.5-.32-1-.6-1.4-.83s-.74-.41-.92-.52a1.05,1.05,0,0,0-.43-.27,1,1,0,0,1-.44-.26l-.52-.26a1,1,0,0,0-.48.18,2,2,0,0,0-.48.34,2.26,2.26,0,0,0-1,.53,2.13,2.13,0,0,1-1,.52,2.82,2.82,0,0,0-.52.44,2.51,2.51,0,0,1-.53.44,3.46,3.46,0,0,0-.34,1c-.12.5-.24,1-.35,1.53s-.22,1-.31,1.49a9.28,9.28,0,0,1-.22,1,1.77,1.77,0,0,1-.13.43c-.09.24-.17.48-.26.75a5.47,5.47,0,0,1-.31.74,1.76,1.76,0,0,0-.17.43c-.06.12-.16.35-.31.7s-.29.72-.43,1.1l-.44,1.09c-.15.35-.25.58-.31.7l-.43.43a1.67,1.67,0,0,0-.44.44l.35-2.71a10.4,10.4,0,0,0-.61,1.27,12.31,12.31,0,0,0-.53,1.35,8.51,8.51,0,0,1-.13,1.1c-.09.55-.17,1.12-.26,1.7s-.17,1.15-.26,1.7a8.62,8.62,0,0,0-.13,1.09l-.7-.87Zm2.8-35.38c.06.35.2,1,.44,2s.46,2,.7,3.1.46,2.14.69,3.1.41,1.61.53,2a4.43,4.43,0,0,1,.22.66,11,11,0,0,1,.22,1.09c0,.41.1.79.13,1.14s0,.55,0,.61l.26.78.18.53h.78c.24,0,.64,0,1.23,0s1.2.08,1.87.13,1.3.11,1.88.13a9.3,9.3,0,0,1,1.31.14l.88-.44c.17-.12.45-.32.83-.61s.78-.58,1.22-.88l1.27-.83.87-.56c.29-.24.77-.64,1.44-1.23s1.38-1.18,2.14-1.79l2.1-1.7,1.4-1.14c.11,0,.24-.14.39-.43a2.69,2.69,0,0,1,.39-.62q-.16,0-.48-.39a1.18,1.18,0,0,1-.3-.57,2.11,2.11,0,0,1-1-.57,2.22,2.22,0,0,0-1-.56,1.54,1.54,0,0,0-.56-.22,10.74,10.74,0,0,1-1.05-.35c-.38-.15-.79-.29-1.22-.44a3.28,3.28,0,0,1-1-.48c-.29-.06-.68-.16-1.18-.3a4.51,4.51,0,0,0-.92-.22l-.78-.18a8.48,8.48,0,0,0-1.14-.17h-1.83c-.24.06-.4.26-.48.61a1.58,1.58,0,0,1-.31.7,3.09,3.09,0,0,1-.22.79,3.58,3.58,0,0,0-.22.78h-.35a13.46,13.46,0,0,0-.21-1.61,12,12,0,0,1-.22-1.71v-.17a.26.26,0,0,0-.09-.18h-.7l-.43,1.36a6.2,6.2,0,0,0-.35,1.35,2,2,0,0,1-.27.87,2.27,2.27,0,0,0-.26.7h-.35l-.26-.26c0-.06,0-.31-.09-.74a7.29,7.29,0,0,1-.08-.92,3.21,3.21,0,0,1-.14-1.4,3.2,3.2,0,0,0-.13-1.39l-5.5-.35Z" transform="translate(742.03 -135.82)"/><path class="a" d="M-633.92,400.34a12.52,12.52,0,0,1-.22,1.62,9.29,9.29,0,0,1-.39,1.7l-.44.79-.78-.44v-5.59a4.32,4.32,0,0,0-.75-.22c-.38-.09-.77-.19-1.18-.31s-.8-.22-1.17-.3-.66-.16-.83-.22a1.94,1.94,0,0,1-.57-.13c-.26-.09-.54-.19-.83-.31s-.59-.22-.88-.3a4.58,4.58,0,0,1-.61-.22,2.8,2.8,0,0,1-.83-.31l-1-.48a2.06,2.06,0,0,0-.61-.52,4.29,4.29,0,0,1-.7-.53,9.34,9.34,0,0,0-1-.78,5.71,5.71,0,0,0-.87-.53c-.12-.17-.43-.52-.92-1.05a3.19,3.19,0,0,0-1.09-.87,2.52,2.52,0,0,0-.57-.87,10.19,10.19,0,0,1-.83-1.14,3.3,3.3,0,0,1-.48-.7,4.82,4.82,0,0,0-.48-.7c-.06-.11-.16-.3-.31-.56a6.48,6.48,0,0,1-.39-.88,5.85,5.85,0,0,0-.4-.87,2.59,2.59,0,0,0-.3-.48,6,6,0,0,1-.48-1.36q-.32-1.08-.48-1.53a12.41,12.41,0,0,0-.18-1.35c-.11-.73-.17-1.18-.17-1.35v-4.72c0-.12.06-.5.17-1.14a9,9,0,0,0,.18-1.22q.17-.53.48-1.62a9.56,9.56,0,0,1,.48-1.44c.06,0,.16-.11.3-.35a4.74,4.74,0,0,0,.4-.78c.11-.29.25-.58.39-.88a5.09,5.09,0,0,0,.31-.7,4.08,4.08,0,0,0,.48-.69,1.69,1.69,0,0,1,.48-.62l.83-1.09a2.69,2.69,0,0,0,.57-.92l.74-.69a6.89,6.89,0,0,1,.83-.7c0-.12.23-.35.7-.7a3.38,3.38,0,0,1,1-.61l1.39-1.05c.29-.12.8-.35,1.53-.7s1.18-.55,1.36-.61a2.65,2.65,0,0,0,.74-.26,2.91,2.91,0,0,0,.74-.44,4.23,4.23,0,0,0,1.09-.18,5.23,5.23,0,0,1,.83-.17h5.16l1.18.17a11.15,11.15,0,0,0,1.7.18,5.26,5.26,0,0,0,1.22.44,8,8,0,0,0,1.14.26,6.1,6.1,0,0,1,1.35.39l1.36.48.7.35c.35.18.73.35,1.13.52s.8.37,1.18.57a6.17,6.17,0,0,0,.83.4l.79.48c.35.2.52.36.52.48l1,1a3.18,3.18,0,0,1,.87,1,6,6,0,0,1,.62.92,3,3,0,0,1,.43.91v2.89c-.06.17-.11.38-.17.61a2.62,2.62,0,0,1-.22.48c-.09.14-.16.28-.22.39a1.67,1.67,0,0,1-.13.44.79.79,0,0,1-.31.44,9.49,9.49,0,0,1-.61.91,8.7,8.7,0,0,1-.7.92c-.11.12-.35.38-.69.79s-.59.67-.7.78a10,10,0,0,0-1.1.7,9.49,9.49,0,0,1-.91.61c0,.06-.12.16-.35.31s-.5.29-.79.44l-.87.43a5.68,5.68,0,0,1-.7.31,3.5,3.5,0,0,0-.74.17,3.18,3.18,0,0,1-.83.18,6.28,6.28,0,0,1-1,.35,4.31,4.31,0,0,1-.79.17,8.78,8.78,0,0,0-1,.09c-.47.06-1,.1-1.49.13s-1,.07-1.44.13-.71.09-.83.09h-4.72q-.25,0-1.26-.09c-.67-.06-1.39-.1-2.14-.13s-1.46-.07-2.1-.13l-1.14-.09h-1.48a2.55,2.55,0,0,0,.22.74,3.09,3.09,0,0,1,.22.75q.17.26.69,1.35c.35.73.59,1.18.7,1.35a6.27,6.27,0,0,0,.57.88,1.71,1.71,0,0,1,.39.7,6,6,0,0,1,.79.7l1.14,1.13c.4.41.8.79,1.18,1.14a7.08,7.08,0,0,0,.83.7c0,.11.18.29.56.52s.66.41.83.53l1.4.69a9.71,9.71,0,0,0,1.4.62,3.16,3.16,0,0,1,.61.21,2.26,2.26,0,0,0,.7.22,6.79,6.79,0,0,0,1.57.31,4.38,4.38,0,0,1,1.4.3h2.8a3,3,0,0,1,1-.3,2.88,2.88,0,0,0,1-.31l.43-.43v-5.6c.06-.17.12-.37.18-.61l.17-.48q.09-.21.18-.39a.26.26,0,0,0,.09-.18.35.35,0,0,1,.08-.26,3.11,3.11,0,0,0,.18-.43l2.36-2.36a3.92,3.92,0,0,1,.91-.53l1.1-.52h.78a7.78,7.78,0,0,0,.61.52c.29.24.44.41.44.53a3.62,3.62,0,0,1,.22,1.05,4.78,4.78,0,0,0,.31,1.31v3.23a4.43,4.43,0,0,0-.31,1.22,9.06,9.06,0,0,1-.22,1.14,2.09,2.09,0,0,1-.17.48c-.12.26-.25.54-.4.83a9.4,9.4,0,0,1-.48.87,3.29,3.29,0,0,1-.43.61,4.63,4.63,0,0,1-.44.83c-.23.38-.38.57-.44.57l-.65.66-1,1-1,1a6.1,6.1,0,0,1-.74.65c0,.12-.18.29-.53.52l-.79.53-.91.44-.92.43a3.8,3.8,0,0,0-1.27.44,5.2,5.2,0,0,0-1.09.61.89.89,0,0,0-.48.22,1,1,0,0,1-.48.22c0,.35,0,1,0,1.83s-.08,1.82-.13,2.84-.14,2-.22,2.88-.16,1.53-.22,1.88a9.25,9.25,0,0,1-.13,1.14,4.43,4.43,0,0,1-.31,1.22,1.63,1.63,0,0,1-.17.44,1.46,1.46,0,0,0-.18.44,3.83,3.83,0,0,1-.35-1.14,8,8,0,0,1-.17-1.22q0-.53-.09-1.71c-.06-.78-.1-1.63-.13-2.53s-.07-1.75-.13-2.53S-633.92,400.63-633.92,400.34Zm-13.37-30.49.79,0,1.31.09,1.36.09c.43,0,.74,0,.91,0l.7.18a5.18,5.18,0,0,1,.61.17,15.22,15.22,0,0,0,2.06.35c1,.12,1.58.18,1.87.18h10.84l1.75-.53a12.49,12.49,0,0,0-1-1.13c-.59-.59-1-1-1.31-1.23a4.59,4.59,0,0,0-.53-.35q-.43-.25-1-.57c-.4-.2-.8-.39-1.18-.56a5.05,5.05,0,0,0-.91-.35,3,3,0,0,1-.48-.13l-.88-.31-.87-.3a2.05,2.05,0,0,0-.57-.14c-.29-.11-.73-.26-1.31-.43a5.39,5.39,0,0,0-1-.26h-7.07l-1,.61a2.39,2.39,0,0,1-1,.43l-.26.27a.22.22,0,0,0-.09.17c0,.06,0,.09-.08.09a3.92,3.92,0,0,0-.53.91,3.94,3.94,0,0,1-.52.92,4.21,4.21,0,0,0-.22.7c-.09.35-.19.56-.31.61Z" transform="translate(742.03 -135.82)"/><path class="a" d="M-594.87,399.29h-1.22c0,.12,0,.34,0,.66s-.08.68-.14,1.09-.1.8-.13,1.18,0,.65,0,.83a2.07,2.07,0,0,0-.17.57c-.06.26-.12.53-.18.83s-.12.61-.17,1h-.44c-.06-.3-.12-.56-.18-.79a4.62,4.62,0,0,0-.21-.66c-.09-.2-.17-.36-.22-.48a7.79,7.79,0,0,0-.09-.91c-.06-.44-.1-.91-.13-1.4s-.07-1-.13-1.44a9.22,9.22,0,0,1-.09-1l-.35-.44-1.27-.61a4.71,4.71,0,0,0-1.09-.44,8.05,8.05,0,0,1-1.53-.61A13.12,13.12,0,0,1-604,396a5.16,5.16,0,0,0-.48-.35c-.26-.17-.54-.36-.83-.57s-.58-.39-.88-.56a3.61,3.61,0,0,1-.61-.44l-1-.74a3.71,3.71,0,0,1-.88-.75l-.65-.65c-.32-.32-.66-.64-1-1s-.68-.64-1-1a5.6,5.6,0,0,0-.75-.66,9,9,0,0,1-.78-1.13,5.48,5.48,0,0,0-1-1.23,7.1,7.1,0,0,1-.61-.74,1.79,1.79,0,0,1-.44-.74,6.88,6.88,0,0,1-.48-1c-.21-.47-.44-.95-.7-1.45l-.74-1.39a6.55,6.55,0,0,1-.44-.92,1.8,1.8,0,0,1-.22-.61,1.72,1.72,0,0,0-.3-.7c0-.12,0-.31,0-.57s-.07-.54-.13-.83-.12-.61-.17-1v-3.93a5.37,5.37,0,0,1,.17-.92,5.68,5.68,0,0,0,.18-.92c.11-.17.36-.62.74-1.35s.65-1.24.83-1.53a1.77,1.77,0,0,1,.39-.7,1.71,1.71,0,0,0,.39-.7l1.4-1.39c.7-.7,1.2-1.17,1.49-1.4l.74-.44.74-.44a3.69,3.69,0,0,1,.61-.43c.3-.18.59-.34.88-.48l.78-.4a1.76,1.76,0,0,1,.44-.17c.23-.06.6-.16,1.09-.31a5.15,5.15,0,0,1,.92-.21h4.72a8,8,0,0,1,.87.21l1,.31a4.58,4.58,0,0,0,.61.22l.88.26c.29.09.56.16.83.22a3.23,3.23,0,0,0,.48.09,10.12,10.12,0,0,0,1,.52c.46.23.78.41,1,.52a8.42,8.42,0,0,0,1.4,1,9.51,9.51,0,0,1,1.39,1c.06.06.45.38,1.18,1s1.3,1.05,1.71,1.4l.35.35c.23.24.53.6.91,1.09a2.79,2.79,0,0,1,.57.92,1,1,0,0,0,.13.44,4.74,4.74,0,0,0,.31.52,4,4,0,0,0,.43.7v1.57a3.14,3.14,0,0,1-.39.92l-.48.92a2.23,2.23,0,0,1-.44.52l-.74.74c-.26.27-.51.5-.74.7l-.44.4a4,4,0,0,1-.87.48,5.87,5.87,0,0,0-1,.48h-1a2.8,2.8,0,0,1-.88-.18,1,1,0,0,1-.52-.26,1.33,1.33,0,0,1-.66-.44c-.2-.23-.3-.37-.3-.43a2.25,2.25,0,0,1-.18-1,2.23,2.23,0,0,1,.18-1,2.79,2.79,0,0,1-.57-.48c-.26-.26-.54-.55-.83-.88a8.33,8.33,0,0,0-.87-.83l-.7-.52c-.12-.12-.53-.42-1.23-.92s-1.22-.86-1.57-1.09a8.21,8.21,0,0,0-1-.52,9.56,9.56,0,0,1-1-.53h-.44a12.29,12.29,0,0,1-.17,1.62,11.46,11.46,0,0,0-.18,1.44,1.17,1.17,0,0,0-.26.18.29.29,0,0,1-.17.08.08.08,0,0,0-.09.09l-.26.17c-.12,0-.18,0-.18-.08v-.09c-.12,0-.22-.15-.3-.44a1.49,1.49,0,0,0-.31-.61,5.23,5.23,0,0,0-.09-.57c-.06-.32-.1-.65-.13-1a8.27,8.27,0,0,0-.13-1,3.64,3.64,0,0,1-.09-.61c-.17-.06-.62-.16-1.35-.31a10,10,0,0,0-1.53-.22h-.35a5.62,5.62,0,0,0-.92.22c-.49.15-.86.25-1.09.31v4.19a3.3,3.3,0,0,0,.22,1c.15.44.25.78.31,1l2.36,4.72a2.06,2.06,0,0,1,.52.61,5.92,5.92,0,0,0,.52.7c.24.29.63.71,1.18,1.26l1.75,1.75,1.7,1.7,1.05,1.05a1.23,1.23,0,0,1,.44.27l.79.61c.29.23.58.45.87.65a3.82,3.82,0,0,0,.61.39l1.4.7a9.23,9.23,0,0,0,1.4.62,2.79,2.79,0,0,1,.83.21,2.55,2.55,0,0,0,.74.22h.79v-.43a1.48,1.48,0,0,0-.22-.44,1.25,1.25,0,0,1-.22-.44v-2a2.34,2.34,0,0,1,.22-.7,2.59,2.59,0,0,0,.22-.7l.52-.48c.29-.26.58-.53.87-.83l.88-.87a5,5,0,0,1,.7-.61l.48-.22a1.59,1.59,0,0,0,.48-.31h1.83c.06,0,.13.08.22.22a.77.77,0,0,0,.31.31c0,.12.17.35.34.7l.57,1.13c.21.41.4.8.57,1.18a9,9,0,0,1,.35.83,3,3,0,0,1,.31.61,2.54,2.54,0,0,1,.21.7v3.41a3.16,3.16,0,0,1-.21.61c-.15.35-.25.58-.31.7a.54.54,0,0,1-.09.31,1.69,1.69,0,0,0-.17.3,3.29,3.29,0,0,1-.18.44,3.65,3.65,0,0,0-.7.87L-587,396a.37.37,0,0,0-.31.22c-.09.15-.16.22-.22.22a4.21,4.21,0,0,1-.92.78,2.92,2.92,0,0,1-.91.53,1.58,1.58,0,0,1-.48.3,1.37,1.37,0,0,0-.48.31,3.83,3.83,0,0,0-1.14.39c-.58.27-1,.45-1.22.57,0,.35,0,1-.05,1.92s-.07,1.93-.13,3-.13,2-.22,3-.16,1.58-.21,1.93a8.16,8.16,0,0,1-.14.91,4.36,4.36,0,0,1-.3,1.1l-.35.34-.79-.87Z" transform="translate(742.03 -135.82)"/><path class="a" d="M-570.14,397.11a5,5,0,0,1-1.4-.4,5.28,5.28,0,0,0-1.4-.39c-.12-.06-.34-.17-.65-.35l-1.1-.57c-.41-.2-.8-.39-1.18-.56a2.91,2.91,0,0,1-.74-.44c-.17-.12-.45-.29-.83-.52a4.38,4.38,0,0,1-.74-.53,5.77,5.77,0,0,1-.83-.79l-1.22-1.31-1.27-1.35c-.41-.44-.7-.74-.88-.92,0,0-.2-.16-.43-.48a2.41,2.41,0,0,1-.44-.83,7.22,7.22,0,0,1-.44-.78c-.17-.35-.36-.72-.56-1.1s-.4-.74-.57-1.09a7.22,7.22,0,0,0-.44-.78,3.08,3.08,0,0,0-.17-.7,3.52,3.52,0,0,1-.18-.62v-6.72a2.48,2.48,0,0,1,.09-.44c.06-.23.13-.49.22-.79s.17-.58.26-.87a1.49,1.49,0,0,1,.31-.61,1.15,1.15,0,0,1,.21-.52,1.15,1.15,0,0,0,.22-.53c.06-.12.19-.33.4-.65s.42-.64.65-1l.87-1.17.49-.49c.26-.26.53-.55.83-.87s.58-.62.87-.92l.61-.61c.18-.11.5-.35,1-.7l1-.7.79-.48c.35-.2.73-.4,1.13-.61l1.14-.57a5.56,5.56,0,0,1,.79-.34,4.79,4.79,0,0,0,1-.18,4.35,4.35,0,0,1,1-.17h5.68a4.23,4.23,0,0,1,.83.17,4.07,4.07,0,0,0,1,.18,1.13,1.13,0,0,1,.44.26,1.61,1.61,0,0,1,.44.43,2.54,2.54,0,0,1,.91.62q.57.52.57.69a2.48,2.48,0,0,0,.09.44,5.42,5.42,0,0,1,.13.74,5.57,5.57,0,0,0,.13.75,1.17,1.17,0,0,0,.17.43,7.6,7.6,0,0,0,.4.66c.2.32.43.67.7,1.05s.51.73.74,1.05a7.08,7.08,0,0,0,.52.65,3.57,3.57,0,0,1,.7,1.05c.35.64.58,1.08.7,1.31.23.41.55,1.06,1,2s.67,1.48.79,1.71a10,10,0,0,1,.61,1.35,5.75,5.75,0,0,1,.44,1.36c.05.35.16.81.3,1.4a8.94,8.94,0,0,1,.22,1v3.4a3.44,3.44,0,0,1-.22.83,7.57,7.57,0,0,0-.3,1.18,3.64,3.64,0,0,1-.22.61,2.34,2.34,0,0,0-.22.7,1.15,1.15,0,0,1-.22.53,2.89,2.89,0,0,1-.39.52,2.39,2.39,0,0,1-.31.61,3.3,3.3,0,0,1-.48.7,5.51,5.51,0,0,0-.87,1l-.7,1-.44.44a3.4,3.4,0,0,1-.87.7l-1.05.7a8.92,8.92,0,0,1-.7.57,2.36,2.36,0,0,1-.61.39,3.88,3.88,0,0,1-1,.52c-.56.24-.83.41-.83.53q-.36.09-.66.87a3.86,3.86,0,0,0-.3,1.05h-.62a2.24,2.24,0,0,0-.39-.79,2.23,2.23,0,0,1-.39-.78h-.53a1.43,1.43,0,0,1-.61.3c-.29.09-.44.16-.44.22l-.78,8.56-.18.09H-569a.08.08,0,0,1-.09-.09,3,3,0,0,0-.21-.74,2.73,2.73,0,0,1-.22-.74c-.06-.29-.13-.79-.22-1.49s-.16-1.45-.22-2.27-.1-1.59-.13-2.31S-570.14,397.4-570.14,397.11Zm-8.39-20.71a6.46,6.46,0,0,0,.17.92,5.68,5.68,0,0,1,.18.92,3,3,0,0,1,.44.74c.17.38.36.77.56,1.18l.57,1.13a1.53,1.53,0,0,0,.44.62,3.19,3.19,0,0,0,.61,1,6.5,6.5,0,0,1,.7,1,7.8,7.8,0,0,1,1,.91c.46.5.79.83,1,1a5.54,5.54,0,0,1,1,.74,5.38,5.38,0,0,0,1,.74,2.43,2.43,0,0,1,.57.26c.32.18.68.37,1.09.57s.81.4,1.22.57a2.75,2.75,0,0,0,.88.26,2.84,2.84,0,0,0,.7.44,2.73,2.73,0,0,0,.61.26h.87c.41,0,.83,0,1.27,0s.84,0,1.22,0h.83c0-.18,0-.48,0-.92s-.06-.9-.09-1.4-.07-.94-.13-1.35a7.26,7.26,0,0,1-.09-.79,1.77,1.77,0,0,0-.13-.43c-.09-.24-.17-.5-.26-.79a6.33,6.33,0,0,0-.35-.87l-.31-.62c-.06-.11-.16-.35-.3-.69l-.48-1.14c-.18-.41-.35-.8-.53-1.18a7.33,7.33,0,0,0-.43-.83c-.12-.17-.35-.58-.7-1.22a8,8,0,0,0-.7-1.14c-.12-.17-.37-.51-.75-1a4.26,4.26,0,0,0-.83-.92q0-.18-.39-.48t-.39-.48a7.91,7.91,0,0,0-.31,1.83c-.08.94-.16,1.55-.22,1.84a4.5,4.5,0,0,1-.21,1.09,4.67,4.67,0,0,0-.22.92h-.61a2.59,2.59,0,0,0-.22-.7,2.83,2.83,0,0,1-.22-.61q0-.27-.09-1.05c-.06-.53-.1-1.08-.13-1.66s-.06-1.14-.09-1.66,0-.87,0-1-.22-.26-.31-.61a4.51,4.51,0,0,0-.21-.7l-.44-.35-.26-.26-.18.17a.26.26,0,0,1-.17.09,2.43,2.43,0,0,1-.61.44l-.31.13a.54.54,0,0,0-.22.13c-.12.06-.17.12-.17.17a1.23,1.23,0,0,0-.53.22,1.12,1.12,0,0,1-.52.22h-1.31l-.44-.44q-.18-.07-.3-.48c-.09-.26-.19-.39-.31-.39s-.28.13-.48.39a1.72,1.72,0,0,1-.48.48c-.06.18-.12.38-.18.62a5.58,5.58,0,0,0-.17.87v3.23Z" transform="translate(742.03 -135.82)"/><path class="a" d="M-547.74,397.59c-.14.08-.21.16-.21.22a6.52,6.52,0,0,0-.4,1.39,9.58,9.58,0,0,0-.22,1.4l-.43-.78a12.31,12.31,0,0,0-.18-1.49,4.26,4.26,0,0,0-.35-1.4,4.1,4.1,0,0,0-.39-1,4,4,0,0,1-.39-1c-.12,0-.25-.2-.4-.61a3.47,3.47,0,0,1-.21-.78,3.56,3.56,0,0,1-.22-.75c-.09-.38-.18-.77-.27-1.18s-.17-.77-.26-1.09a3.09,3.09,0,0,0-.22-.65c0-.18,0-.5-.08-1s-.13-1-.22-1.52-.18-1.08-.26-1.58-.16-.86-.22-1.09-.19-1-.39-2.18-.43-2.43-.66-3.8-.44-2.65-.61-3.85a20.38,20.38,0,0,1-.26-2.22,3.81,3.81,0,0,1-.22-.83c-.09-.44-.19-.92-.31-1.45s-.22-1-.3-1.48a8.12,8.12,0,0,0-.22-1,2.83,2.83,0,0,0-.22-.61,2.34,2.34,0,0,1-.22-.7c-.06,0-.22-.21-.48-.61a2.24,2.24,0,0,1-.39-.79v-2.36a3.08,3.08,0,0,1,.17-.7,3.54,3.54,0,0,0,.18-.61,4.27,4.27,0,0,0,.48-.74,3.47,3.47,0,0,1,.48-.75,8.23,8.23,0,0,1,.7-.82l.7-.75.78-.43a2.22,2.22,0,0,1,.79-.35c0-.06.17-.13.52-.22a2.64,2.64,0,0,0,.79-.31h.44c.11.12.29.28.52.48l.52.48a4,4,0,0,1,.18.44,4.13,4.13,0,0,1,.17.61c.12.06.24.26.35.61a2.87,2.87,0,0,1,.18.7c0,.18.13.44.22.79s.18.71.3,1.09.22.74.31,1.09.16.61.22.79a6.19,6.19,0,0,0,.21,1.22,5.84,5.84,0,0,1,.22,1.14,6,6,0,0,1,.7-.79c.35-.35.73-.71,1.14-1.09s.78-.74,1.13-1.09a6,6,0,0,0,.7-.79,2.7,2.7,0,0,0,.92-.61,4.45,4.45,0,0,1,1-.7,8.83,8.83,0,0,0,.88-.61c.23-.18.43-.32.61-.44a6.9,6.9,0,0,1,1.13-.48,10.59,10.59,0,0,0,1.23-.48,5.59,5.59,0,0,1,1.48-.26c.7-.06,1.17-.09,1.4-.09h.57c.32,0,.65,0,1,.05a6.56,6.56,0,0,1,1,.13,2.44,2.44,0,0,1,.62.17,2.62,2.62,0,0,1,1,.39l1,.57a7.61,7.61,0,0,0,.61.53c.29.23.44.4.44.52v2.71a2.59,2.59,0,0,1-.22.7,1.26,1.26,0,0,1-.4.61,8.36,8.36,0,0,1-.69,1.09c-.35.5-.56.8-.62.92,0,.46,0,1.24-.08,2.31s-.11,2.22-.13,3.41-.08,2.33-.13,3.41-.09,1.82-.09,2.23c0,.17,0,.46,0,.87s-.07.83-.13,1.27-.13.84-.22,1.22-.16.65-.21.83a4.65,4.65,0,0,1-.22,1.09,4.67,4.67,0,0,0-.22.92V368.63a.48.48,0,0,0-.18-.35.55.55,0,0,1-.17-.35h-1a2.51,2.51,0,0,0-.31.35,4.35,4.35,0,0,1-.3.35,8.3,8.3,0,0,0-.22,1.09c0,.26-.08.52-.13.78a3.51,3.51,0,0,0-.09.49,1.7,1.7,0,0,0-.22.61,3.41,3.41,0,0,0-.13.7.71.71,0,0,1-.52.35l-.44-.79a5,5,0,0,1-.17-1c-.06-.47-.11-.95-.14-1.44s-.07-1-.13-1.4a5.93,5.93,0,0,0-.17-.92c0-.06-.1-.16-.31-.3a.89.89,0,0,0-.48-.22h-3.32a7.3,7.3,0,0,1-.61.48c-.29.2-.44.36-.44.48s-.2.63-.43,1.35-.38,1.18-.44,1.36v11c0,.12,0,.43,0,.92s.08,1.05.13,1.66.12,1.17.18,1.66a4.49,4.49,0,0,0,.17.92v4.28a2.12,2.12,0,0,0-.26.61c-.06.18-.12.34-.17.48a1.08,1.08,0,0,0-.09.39,1.25,1.25,0,0,1-.22.44,1.48,1.48,0,0,0-.22.44,5,5,0,0,0-.52.74,3.87,3.87,0,0,1-.53.74,3.92,3.92,0,0,1-.61,1c-.35.47-.58.79-.7,1,0,.4-.11,1.12-.17,2.14s-.1,2.09-.13,3.23-.08,2.21-.13,3.23-.12,1.73-.18,2.14a7.33,7.33,0,0,1-.08.83c-.06.38-.11.77-.14,1.18s-.07.79-.13,1.14a4.64,4.64,0,0,0-.08.7,1.56,1.56,0,0,1-.18.43,1,1,0,0,1-.35.44c0-.18-.06-.63-.17-1.36a11.81,11.81,0,0,1-.18-1.35v-12A.37.37,0,0,1-547.74,397.59Z" transform="translate(742.03 -135.82)"/><path class="a" d="M-520,398.16a5.67,5.67,0,0,1-.92-.14c-.43-.08-.87-.19-1.31-.3s-.86-.22-1.26-.31a6.19,6.19,0,0,0-.79-.13,2.64,2.64,0,0,1-.74-.22,3.19,3.19,0,0,0-.74-.22l-1-.61a2.31,2.31,0,0,0-1-.43l-.7-.44a6.51,6.51,0,0,1-.61-.44,4.16,4.16,0,0,0-.91-1c-.5-.44-.86-.77-1.1-1a1.26,1.26,0,0,1-.43-.52,1.64,1.64,0,0,1-.35-.87,2.45,2.45,0,0,1-.4-.62,9.4,9.4,0,0,0-.48-.87,7.37,7.37,0,0,1-.43-.83,2,2,0,0,0-.27-.48,7.2,7.2,0,0,0-.17-1.14,6.83,6.83,0,0,1-.17-1.22V384a7,7,0,0,1,.17-1.13,6.8,6.8,0,0,0,.17-1.23,2.53,2.53,0,0,0,.31-.83,4.41,4.41,0,0,1,.22-.74c.11-.17.36-.62.74-1.35s.63-1.18.74-1.36l.44-.74c.23-.38.38-.57.44-.57a5.31,5.31,0,0,1,.65-.74l1-1c.35-.35.68-.67,1-1s.57-.52.74-.69a2.62,2.62,0,0,1,.88-.83,2.65,2.65,0,0,1,.87-.49,1.48,1.48,0,0,1,.61-.43l1.14-.57,1.18-.57a7.33,7.33,0,0,0,.83-.43,3.37,3.37,0,0,0,.74-.18A3.51,3.51,0,0,1-520,369a3.09,3.09,0,0,1,.48-.18,2,2,0,0,0,.57-.26,3.31,3.31,0,0,1,.7-.26h7.08l.52.08,1,.18a5.94,5.94,0,0,1,.92.22,3.81,3.81,0,0,1,.57.22,3.64,3.64,0,0,0,.69-.14,6.23,6.23,0,0,1,.62-.13V354.82a9.9,9.9,0,0,1,.21-1.44,8.88,8.88,0,0,0,.22-1.61c.12-.18.29-.49.53-.92s.4-.69.52-.74a3.76,3.76,0,0,1,1.05-1.23c.64-.58,1.08-1,1.31-1.13,0-.12.13-.24.39-.35s.43-.23.48-.35a5.15,5.15,0,0,0,.88-.18,5.79,5.79,0,0,0,.61-.17,2.14,2.14,0,0,1,.48.13c.26.09.39.16.39.22,0,.58,0,1.64.09,3.19s.1,3.17.13,4.89.07,3.35.13,4.89.09,2.61.09,3.19a12.9,12.9,0,0,1,.17,1.53c.06.73.11,1.48.14,2.27s.07,1.53.13,2.23a9.56,9.56,0,0,0,.17,1.4,15.43,15.43,0,0,0,.13,1.57c.09.76.19,1.6.31,2.53s.22,1.82.3,2.67.16,1.47.22,1.88a10.33,10.33,0,0,0,.18,1.57c.11.7.17,1.1.17,1.22s.15.35.44.7.49.58.61.7a2.26,2.26,0,0,0,.22.7,3.64,3.64,0,0,1,.22.61c.05.35.16.89.3,1.62a8.74,8.74,0,0,1,.22,1.44v3.67a2.23,2.23,0,0,1-.22.69c-.14.35-.25.59-.3.7s-.15.35-.44.7a2.69,2.69,0,0,1-.61.61c0,.24-.21.54-.61.92l-.7.66c-.18.11-.38.26-.61.43a7.28,7.28,0,0,1-.88.61,1.47,1.47,0,0,0-.43.22,1.33,1.33,0,0,1-.44.22h-1.05a1.76,1.76,0,0,1-.44-.17,1.57,1.57,0,0,1-.35-.27,1.6,1.6,0,0,1-.3-.69c-.09-.35-.16-.64-.22-.88a4.64,4.64,0,0,0-.22-.91,5.62,5.62,0,0,1-.22-.92,4.52,4.52,0,0,1-.22-.88c-.08-.46-.19-1-.3-1.48s-.22-1-.31-1.49a3.88,3.88,0,0,0-.22-.87,1.41,1.41,0,0,0-.17-.44,1.31,1.31,0,0,1-.17-.43,3.65,3.65,0,0,0-.75.83c-.38.49-.65.77-.83.83l-1,1.44c-.41.61-.67.92-.78.92a6,6,0,0,0-.53.61c-.23.29-.41.43-.52.43a3.34,3.34,0,0,1-.88.7,5.48,5.48,0,0,1-1,.61c-.12.12-.35.32-.7.62a2.2,2.2,0,0,1-.62.43l-.69.35-1.1.57c-.38.2-.72.41-1,.61a1.78,1.78,0,0,0-.57.48,2.89,2.89,0,0,0-.18.7c-.06.35-.1.73-.13,1.14s-.06.78-.09,1.13,0,.58,0,.7a1.47,1.47,0,0,1-.17.53,1.27,1.27,0,0,0-.18.52,2.12,2.12,0,0,1-.35-.52,1.29,1.29,0,0,1-.17-.53,8.11,8.11,0,0,1-.44-1.4,7.71,7.71,0,0,1-.26-1.39v11h-.44a.89.89,0,0,1-.35-.08c-.06,0-.13-.15-.22-.44A3,3,0,0,1-519,408a6.47,6.47,0,0,1-.35-1.4,11.81,11.81,0,0,1-.17-1.4q0-.44-.09-1.44c-.06-.67-.1-1.38-.13-2.14s-.07-1.46-.13-2.1S-520,398.45-520,398.16Zm-6.29-15c.12.17.36.63.74,1.35a7.33,7.33,0,0,0,.83,1.36,8.44,8.44,0,0,0,1.23,1.4c.7.69,1.22,1.19,1.57,1.48a4.71,4.71,0,0,1,.79.35,5,5,0,0,0,1.13.44,3.12,3.12,0,0,0,.7.43,2.7,2.7,0,0,0,.61.27H-514a3.15,3.15,0,0,0,.92-.44c.49-.29.86-.5,1.09-.61s.27-.28.48-.48.31-.37.31-.48.18-.27.39-.62.39-.71.57-1.09.35-.77.52-1.18a6.11,6.11,0,0,1,.44-.87,2.26,2.26,0,0,1,.22-.7,3.16,3.16,0,0,0,.21-.61c.06-.23.16-.57.31-1s.26-.84.35-1.22.17-.73.26-1a3.58,3.58,0,0,0,.13-.56c0-.18,0-.54,0-1.1s0-.88,0-1c-.17,0-.64-.05-1.4-.13s-1.25-.13-1.48-.13a2.76,2.76,0,0,1-.7-.18,9.63,9.63,0,0,0-1.18-.3l-1.22-.27c-.38-.08-.6-.13-.66-.13a7.22,7.22,0,0,1-.92-.13,6.64,6.64,0,0,0-1.09-.13,6,6,0,0,0-1,.13,6,6,0,0,1-1,.13,4.09,4.09,0,0,1-.13.61,1.53,1.53,0,0,1-.31.7H-519a2.3,2.3,0,0,1-.35-.48,1.11,1.11,0,0,1-.17-.48l-.26-.26a.26.26,0,0,0-.18-.09,3.41,3.41,0,0,1-.7-.13,3.59,3.59,0,0,0-.87-.13,2.87,2.87,0,0,0-.74.13,2.88,2.88,0,0,1-.66.13,2.73,2.73,0,0,0-.79.31,6.39,6.39,0,0,0-1,.57c-.11,0-.29.11-.52.35a2.32,2.32,0,0,1-.52.43,5.54,5.54,0,0,0-.27.61,1.07,1.07,0,0,1-.26.44v4.37Z" transform="translate(742.03 -135.82)"/><path class="a" d="M-471.77,398.85a.64.64,0,0,1-.27,0,.56.56,0,0,0-.26,0h-.26c0,.11-.06.17-.18.17s-.17,0-.17.09a9.41,9.41,0,0,0-.74,1.35,9.24,9.24,0,0,0-.57,1.36c0-.12,0-.32,0-.61s.05-.5.05-.62a3.09,3.09,0,0,1-.18-1c-.06-.65-.09-1.08-.09-1.31a2.89,2.89,0,0,1-.91-.27l-1.36-.52-1.39-.53a3.57,3.57,0,0,0-1-.26,4.55,4.55,0,0,1-.78-.39c-.35-.2-.73-.44-1.14-.7s-.77-.51-1.09-.74a4.74,4.74,0,0,1-.65-.53,1.18,1.18,0,0,1-.53-.21c-.23-.15-.49-.34-.79-.57s-.56-.44-.82-.61a3.35,3.35,0,0,1-.57-.44,3.43,3.43,0,0,1-.53-.44l-.78-.78-.75-1c-.32-.44-.54-.71-.65-.83a10.84,10.84,0,0,1-.79-1c-.41-.56-.67-.92-.78-1.09-.12,0-.24-.22-.35-.66l-.27-1a5,5,0,0,0-.26-1,8.1,8.1,0,0,0-.35-1,7.33,7.33,0,0,0-.08-.83,6.2,6.2,0,0,1-.09-.75c.06-.29.11-.55.17-.78s.12-.45.18-.66a1.69,1.69,0,0,0,.08-.48,4.7,4.7,0,0,1,.18-1.13l.17-.7c.06-.12.19-.15.4-.09a5.65,5.65,0,0,1,.61.22l.61.26a.56.56,0,0,0,.48,0v-.52l-.83-.39c-.44-.21-.9-.44-1.4-.7s-1-.54-1.39-.83a1.94,1.94,0,0,1-.75-.7c-.06,0-.29-.22-.7-.66a4.9,4.9,0,0,1-.78-1,1.5,1.5,0,0,1-.44-.48,1.62,1.62,0,0,1-.26-.48,2,2,0,0,0-.31-.74l-.39-.75a8,8,0,0,1-.35-1.26c-.12-.56-.2-1-.26-1.18a20,20,0,0,1-1.31-8.57,7.69,7.69,0,0,1,2.4-5,8.6,8.6,0,0,1,5.11-2,21.25,21.25,0,0,1,6.77.61,36.82,36.82,0,0,1,7.34,2.66,36.65,36.65,0,0,1,6.81,4.24,27.71,27.71,0,0,1,5.25,5.37,14.28,14.28,0,0,1,2.66,6,.61.61,0,0,0-.09.26v.09l-.08-.09a1.38,1.38,0,0,1-.35-.26l-.35-.18a.36.36,0,0,0-.35,0,4.71,4.71,0,0,1-.44,1.09,4.7,4.7,0,0,0-.44,1.1,3.7,3.7,0,0,1-.56.43,3.35,3.35,0,0,0-.57.44,2.71,2.71,0,0,0-.66.39,5.77,5.77,0,0,0-.74.57,1.39,1.39,0,0,1-.35,0,1.75,1.75,0,0,0-.43-.05,1.93,1.93,0,0,1-.62-.09h-.26c-.29,0-.47,0-.52-.08h-.53c-.11,0-.16-.07-.13-.22s0-.22-.13-.22c.06-.11,0-.31-.13-.57a1.36,1.36,0,0,1-.22-.56q0-.09-.09-.66a2.89,2.89,0,0,0-.26-.92,2.47,2.47,0,0,0,.79-1.48,3.3,3.3,0,0,0-.18-1.53,2.86,2.86,0,0,0-.78-1.22,2.16,2.16,0,0,0-1-.57,4.6,4.6,0,0,1-.83-1l-1.62-2.06-1.62-2a4.34,4.34,0,0,0-.83-.91c0,.11,0-.05-.08-.48s-.12-.63-.18-.57a5.36,5.36,0,0,0-.35,1.22,2.8,2.8,0,0,0-.09.7c-.05.47-.17,1.17-.34,2.1l-.57,3q-.31,1.57-.57,3a12.93,12.93,0,0,0-.26,2,9.16,9.16,0,0,0,2.44,1.7c1,.5,1.87,1,2.62,1.44a7.14,7.14,0,0,1,1.1.26l2,.57a21.38,21.38,0,0,1,2.05.7,3,3,0,0,1,1.22.74,4.61,4.61,0,0,0,.61.48,6.94,6.94,0,0,0,1,.57,8.35,8.35,0,0,1,.92.53,1.3,1.3,0,0,0,.57.26,6.09,6.09,0,0,0,1.35,1.09,5.71,5.71,0,0,1,1.27,1,6.32,6.32,0,0,0,.53.44c.29.24.58.48.87.74l.83.75a2.72,2.72,0,0,0,.57.43l.52.57.74.83c.27.29.51.56.75.79s.4.35.52.35.33.54.83,1.26.86,1.24,1.09,1.53a2.31,2.31,0,0,0,.09.53,2.33,2.33,0,0,1,.09.52,3.29,3.29,0,0,1-.18.44,4.13,4.13,0,0,0-.17.61,1.47,1.47,0,0,0-.09.61,1.43,1.43,0,0,1-.09.61,1.48,1.48,0,0,1-.26.62,3.21,3.21,0,0,1-.35.52c-.12.12-.36.33-.74.65s-.57.54-.57.66a10.76,10.76,0,0,1-1.22.92,9.68,9.68,0,0,0-1.31,1,3.39,3.39,0,0,1-.92.35l-1,.26a3,3,0,0,1-1,.31,2.2,2.2,0,0,0-.92.3,6.79,6.79,0,0,1-1.57.31,10.06,10.06,0,0,0-1.4.22,3.14,3.14,0,0,0-.91-.09h-3.8l-.62,10.92h-.35c0-.06,0-.22,0-.48a7.33,7.33,0,0,1,0-.83,4.41,4.41,0,0,1,.08-.83q.09-.39.27-.48c-.06-.35-.15-.93-.27-1.75s-.23-1.69-.35-2.62-.2-1.8-.26-2.62a4.89,4.89,0,0,1,.09-1.75ZM-487.59,363c-.06.17-.14.52-.26,1a7.81,7.81,0,0,0-.17.88c-.06.11,0,.42.17.92s.32.85.44,1.09a2,2,0,0,0,.91,1.18l1,.65q.09.09.48.39c.26.21.57.44.92.7l1,.79q.48.39.66.57a2.81,2.81,0,0,1,1.48,1,3.49,3.49,0,0,0,1.84,1.05,1.28,1.28,0,0,1,.13-.61,1.35,1.35,0,0,0,.13-.62c.06-.7.17-1.61.35-2.75s.35-2.27.52-3.4.35-2.15.53-3,.26-1.37.26-1.48v-.66c0-.26,0-.39-.13-.39s-.21.23-.35.7a23.64,23.64,0,0,0-.57,2.62l-.52.52a5.17,5.17,0,0,0-.13-.74,6.06,6.06,0,0,1-.14-.66q0-.34.09-.39c.06,0,.09-.13.09-.31.52-.29.68-.59.48-.91a2.65,2.65,0,0,0-1.27-.88,7.56,7.56,0,0,0-2.36-.48,11.78,11.78,0,0,0-2.62.13,4.43,4.43,0,0,0-2.09,1A2.65,2.65,0,0,0-487.59,363Zm5,15.72a.52.52,0,0,1-.17.35l-.18.18a4.63,4.63,0,0,1,.35,1.09,7.31,7.31,0,0,0,.26.91l.53.79c.23.35.49.73.79,1.14s.56.77.83,1.09.48.57.65.74a2.09,2.09,0,0,0,.48.79,7.89,7.89,0,0,0,.66.78l1.22.79a3.88,3.88,0,0,1,1.22,1,5.44,5.44,0,0,1,1.09.7,2.61,2.61,0,0,0,1.18.61,5.72,5.72,0,0,0,.62.35,2.74,2.74,0,0,0,1,.35,4,4,0,0,0,1.39.7,5.27,5.27,0,0,0,1,.26,3.58,3.58,0,0,1,.56.13c.32.09.69.17,1.1.26l1.22.26a4.5,4.5,0,0,0,.87.13,3.89,3.89,0,0,1,.57.09l.83.18a5.16,5.16,0,0,0,1,.26l.52-.44a.9.9,0,0,1-.26-.17l-.26-.26a5.66,5.66,0,0,1-.52-.62l-.4-.39a1.64,1.64,0,0,0-.39-.31l-1-.91-.87-.83a7,7,0,0,1-.79-.57c-.41-.32-.85-.66-1.31-1s-.92-.7-1.36-1.05a11.09,11.09,0,0,1-.91-.79,1.06,1.06,0,0,1-.4-.22l-.74-.52c-.29-.21-.6-.41-.92-.61a3.51,3.51,0,0,0-.74-.4,7.84,7.84,0,0,1-1.22-.87,5.19,5.19,0,0,0-1-.7,13.74,13.74,0,0,1-1.31-.65l-1.88-1.05-1.92-1.09a11.7,11.7,0,0,1-1.36-.88Z" transform="translate(742.03 -135.82)"/><path class="a" d="M-411.69,301.93c0,1.55.79,1,.95,1.22C-411,300.56-411.9,302-411.69,301.93Z" transform="translate(742.03 -135.82)"/><polygon class="a" points="326.36 141.07 326.77 141.45 325.3 137.94 326.36 141.07"/><path class="a" d="M-421,254c-.35,1.28.26,3.3,1.08,5.54a28.26,28.26,0,0,1,1.93,6.81l-.16.75,1.55,1.6c-.34-1.24-.73-2.56-1.13-3.9s-.78-2.71-1.27-4A50.63,50.63,0,0,1-421,254Z" transform="translate(742.03 -135.82)"/><path class="a" d="M-422.41,241c-.23.94-1.46-2.39.93,2.84,0-.29,0-.38-.07-.55C-421.74,242.83-422,242.16-422.41,241Z" transform="translate(742.03 -135.82)"/><path class="a" d="M-421.55,243.31c1,2.33-.17-1.71,0,0Z" transform="translate(742.03 -135.82)"/><path class="a" d="M-426.38,232.7l1.82,2.83c0-.77-1.14-3.51-.47-2.6C-426.69,229.92-426.69,230.71-426.38,232.7Z" transform="translate(742.03 -135.82)"/><path class="a" d="M-428.66,230.31c.33.47.65.95.94,1.45C-427.72,231.43-427.85,231-428.66,230.31Z" transform="translate(742.03 -135.82)"/><path class="a" d="M-425.82,234.88l-1.9-3.12c0,.53-.41.77.83,1.45C-427.39,233.12-426.73,233.6-425.82,234.88Z" transform="translate(742.03 -135.82)"/><path class="a" d="M-425.17,236.85a15.19,15.19,0,0,1,.56,2.38c0,.45-.2.28-1.1-1.14,1.31,2.86,2,4,2.2,3.71a3.46,3.46,0,0,0-.27-1.52A21.12,21.12,0,0,0-425.17,236.85Z" transform="translate(742.03 -135.82)"/><path class="a" d="M-422.82,253.29c.12.81.26,1.62.33,2.44l1,1.88a13.07,13.07,0,0,1-.69-2.63C-422.38,254-422.64,253.15-422.82,253.29Z" transform="translate(742.03 -135.82)"/><path class="a" d="M-435.62,214.15c-.37,0-.09,1.37-.29,1.78.56.62,1.05,1.27,1.56,1.92C-434.76,216.63-435.92,214.53-435.62,214.15Z" transform="translate(742.03 -135.82)"/><path class="a" d="M-435.91,215.93l-2.41-2.8C-436.61,215.91-436.08,216.28-435.91,215.93Z" transform="translate(742.03 -135.82)"/><path class="a" d="M-430.35,230.49l.93,1.2.86,1.23,1.72,2.49c-1.31-2-2.59-4-4-5.93Z" transform="translate(742.03 -135.82)"/><path class="a" d="M-443.53,202.51c.61.41,1.19.85,1.79,1.28l-1.51-1.21-1.57-1.14Z" transform="translate(742.03 -135.82)"/><path class="a" d="M-449.45,195.29c1.46.8-.64-2.25.71-1.24a31,31,0,0,0-5.19-4.33A22.64,22.64,0,0,1-449.45,195.29Z" transform="translate(742.03 -135.82)"/><path class="a" d="M-456.66,187.8c.81.65,1.73,1.25,2.73,1.92A18.31,18.31,0,0,0-456.66,187.8Z" transform="translate(742.03 -135.82)"/><path class="a" d="M-441.66,207.89a5,5,0,0,0-1-2.85l.14,1.67Z" transform="translate(742.03 -135.82)"/><path class="a" d="M-442.48,206.77v-.06l-1.76-2.56Z" transform="translate(742.03 -135.82)"/><path class="a" d="M-441.45,208.19l-.21-.3C-441.65,208.05-441.62,208.13-441.45,208.19Z" transform="translate(742.03 -135.82)"/><path class="a" d="M-434.12,221.75c-1.48-1.62-4.11-5.18-2.61-1.11C-435.47,221.67-436.34,219.33-434.12,221.75Z" transform="translate(742.03 -135.82)"/><path class="a" d="M-441.3,210.24c.69,1.09,1.29,2.23,1.94,3.33.15-.18.05-.95.82-.19C-439.47,212.33-440.34,211.26-441.3,210.24Z" transform="translate(742.03 -135.82)"/><polygon class="a" points="299.41 73.04 300.73 74.42 299.96 73.21 299.41 73.04"/><path class="a" d="M-452.75,193.26a17.07,17.07,0,0,1-2-1.77c-.67-.64-1.37-1.32-2.1-2.05.69.87,1.45,1.7,2.15,2.58s1.42,1.73,2.13,2.55C-452.16,194.63-451.17,195-452.75,193.26Z" transform="translate(742.03 -135.82)"/><path class="a" d="M-447.64,199.74l-.27-.26C-447.82,199.7-447.73,199.86-447.64,199.74Z" transform="translate(742.03 -135.82)"/><path class="a" d="M-471.63,175.46l.15.33.15-.06Z" transform="translate(742.03 -135.82)"/><path class="a" d="M-452.44,195a8.83,8.83,0,0,0,2.6,2.52c-.89-.88-1.79-1.84-2.72-2.91C-452.74,194.55-452.82,194.58-452.44,195Z" transform="translate(742.03 -135.82)"/><path class="a" d="M-460.94,184l1.72,2.38C-459.6,185.55-460.55,184-460.94,184Z" transform="translate(742.03 -135.82)"/><path class="a" d="M-448.07,198.89l.18.17C-448.08,198.52-448.11,198.63-448.07,198.89Z" transform="translate(742.03 -135.82)"/><path class="a" d="M-448.07,198.89a16.22,16.22,0,0,0-1.77-1.41c.68.75,1.33,1.44,1.93,2A2.49,2.49,0,0,1-448.07,198.89Z" transform="translate(742.03 -135.82)"/><path class="a" d="M-479.8,176c.35-.23,1.47.17,2.81,1a15.22,15.22,0,0,1,2.08,1.54,15.08,15.08,0,0,1,1.88,2.11c3.12,1.92,3.08-1.56,1.55-4.82-.32.21-.47.38-3.77-1.59.85,1.09,5.79,6.18,2.92,4.64a18.93,18.93,0,0,1-3.22-2.72,16.36,16.36,0,0,0-1.39-1.94c.51,1-1,.33-2.56-.39s-3.36-1.37-3.34-.48c1.29.67,2.5,1.45,3.74,2.2C-479.17,175.74-480.62,175.06-479.8,176Z" transform="translate(742.03 -135.82)"/><path class="a" d="M-466,180.64l1.21,1a44.82,44.82,0,0,1-3.35-4.45c-2.24-1.43-2.84-1.56-3.15-1.48,1.92,1.74,3.9,3.41,5.76,5.2Z" transform="translate(742.03 -135.82)"/><path class="a" d="M-459.75,186.57c-1.44-.32-4.45-2.59-3.43-.36a12.49,12.49,0,0,0,2.88,2.29,7,7,0,0,1,2.05,1.19c-5.27-5.21,1.82,1.22-1.53-3,1.11,1,2,1.88,2.94,2.76-.85-1.05-1.65-2.07-2.38-3.07l.08.16,0,0h0c.14.31.17.43,0,.12l-.12-.1a.9.9,0,0,1-.46,0c-1.37-1.69-.08-.41.46,0a.78.78,0,0,0,.16,0v0c-.91-.86-1.86-1.67-2.83-2.47l-2.86-2.4C-463.79,182.85-462.29,184.14-459.75,186.57Z" transform="translate(742.03 -135.82)"/><path class="a" d="M-440.32,218.25c-.06-.23,0-.26,0-.31C-440.62,217.6-440.78,217.49-440.32,218.25Z" transform="translate(742.03 -135.82)"/><path class="a" d="M-441.5,215.44a6.14,6.14,0,0,1,1.78,2.08c.59,1.4-.36.21-.56.42.77.75,2.46,2.78,1.09-.22l-.38-.38c-1.33-2.63-2.5-6.44-2.12-6.07A10.4,10.4,0,0,0-441.5,215.44Z" transform="translate(742.03 -135.82)"/><path class="a" d="M-450.12,200.59c-1.35-1.55-2.83-3-4.26-4.43l1.46,2.83.25-.4C-450.59,201.37-450.68,200.47-450.12,200.59Z" transform="translate(742.03 -135.82)"/><path class="a" d="M-471.89,174.67l1.21-.16c-1.17-.48-2.43-.85-3.62-1.27Z" transform="translate(742.03 -135.82)"/><path class="a" d="M-478.33,169.74l.71-.45c-.66-.31-1.35-.58-2-.87Z" transform="translate(742.03 -135.82)"/><path class="a" d="M-712.77,383l1,1.38C-712.19,383.69-712.51,383.27-712.77,383Z" transform="translate(742.03 -135.82)"/><path class="a" d="M-718.67,372l-.49-.1C-718.7,372.3-718.45,372.44-718.67,372Z" transform="translate(742.03 -135.82)"/><path class="a" d="M-665.51,161.64c-2.63.81-5.8,1.48-5,2.05l1.17.28A18.88,18.88,0,0,1-665.51,161.64Z" transform="translate(742.03 -135.82)"/><path class="a" d="M-736,271.43l.39-.69c-.15-.67-.29-1.31-.42-1.87C-736.07,269.64-736.11,270.51-736,271.43Z" transform="translate(742.03 -135.82)"/><path class="a" d="M-732.84,273.89l-1.14,3.19A25,25,0,0,0-732.84,273.89Z" transform="translate(742.03 -135.82)"/><path class="a" d="M-666,431.62c.71.14,1.41.29,2.14.39C-666.46,430.27-665.57,431.39-666,431.62Z" transform="translate(742.03 -135.82)"/><path class="a" d="M-554.3,138.68a47.38,47.38,0,0,0-5.63-1.25C-557.23,138.28-555.13,139.3-554.3,138.68Z" transform="translate(742.03 -135.82)"/><path class="a" d="M-723.28,383.16c.69.9,1.08,1.22,1.23,1.1C-722.75,383.34-723.22,382.85-723.28,383.16Z" transform="translate(742.03 -135.82)"/><path class="a" d="M-566.57,136.88c.4.12.79.19,1.2.3a33.64,33.64,0,0,1,5.44.25A14.28,14.28,0,0,0-566.57,136.88Z" transform="translate(742.03 -135.82)"/><path class="a" d="M-448.22,390.67c.13-.13.26-.3.39-.41C-447.9,390.15-448,390.35-448.22,390.67Z" transform="translate(742.03 -135.82)"/><path class="a" d="M-414.23,325.17c0,.75-.19,2-.32,3.11A20.44,20.44,0,0,0-414.23,325.17Z" transform="translate(742.03 -135.82)"/><path class="a" d="M-506,152.54c1.58.7.3,0,0,0Z" transform="translate(742.03 -135.82)"/><path class="a" d="M-500.19,159.36c-.37-.08-.67-.09-.8.06A1.13,1.13,0,0,1-500.19,159.36Z" transform="translate(742.03 -135.82)"/><path class="a" d="M-583.51,142h-.14C-583.15,142.15-583.24,142.12-583.51,142Z" transform="translate(742.03 -135.82)"/><path class="a" d="M-503.88,154.06c-.53-.39-1.15-.81-1.85-1.23C-505.44,153-504.88,153.43-503.88,154.06Z" transform="translate(742.03 -135.82)"/><path class="a" d="M-504,153.53l1.3.76C-502.45,154.26-502.58,154.09-504,153.53Z" transform="translate(742.03 -135.82)"/><path class="a" d="M-508.23,151.6c.9.39,1.72.81,2.5,1.23-.28-.2-.39-.3-.3-.29Z" transform="translate(742.03 -135.82)"/><path class="a" d="M-557.11,460.55a2.33,2.33,0,0,1,.36,0C-555.16,460-555.87,460.17-557.11,460.55Z" transform="translate(742.03 -135.82)"/><path class="a" d="M-693.31,196.11c0-.06,0-.1.09-.16l-.18.15Z" transform="translate(742.03 -135.82)"/><path class="a" d="M-696.7,200.89a8.49,8.49,0,0,1,3.3-4.79c-1.06-.1-2.13-.2-3.18-.27C-696.64,197.54-696.68,199.22-696.7,200.89Z" transform="translate(742.03 -135.82)"/><path class="a" d="M-695,406.91l-2.07-3.58c4.17,2.87,6.14,5.77,4.47,2.21-.6.34-1.55-.21-2.68-1.22a32.78,32.78,0,0,1-3.69-4,54.16,54.16,0,0,0-3.57-4.11c-1-1.11-1.93-1.77-2.57-1.49l-1.09-2.51c.43.64.63.64,1,1.28-2-5-3.84-2.06-7.21-8-1.06-2.12-1.49-3.77-.43-2.54l-3.2-4.21c-.7-1.36-.11-1.25.6.09-1.37-2.29-2.58-4.66-3.89-7l.1,0a38.53,38.53,0,0,1-3.33-4c-.49-2,.69.82.78.2-.8-1.26-1.65-2.51-2.42-3.81,0-1,.48-.67,1.11.23a18.52,18.52,0,0,1,2.08,3.78,4.76,4.76,0,0,0-1-4.45,18,18,0,0,1-2.91-7.52c.57,1.28,1.22,2.51,1.83,3.76a12.28,12.28,0,0,0-.51-4.65,53.08,53.08,0,0,1-1.21-5.92c-.13,1.15.71,9.64-1.46,5.34a16,16,0,0,0-2-5.36c.92-.31,0-2.67-.91-5.69l1.29-.13a11.49,11.49,0,0,0-1.48-2.8,11,11,0,0,1-1.31-1.8c-.74-3.75.05-4.71.73-5.75-.86-6-.82,4.44-2.32-2.61-.1-1.27-.25-2.43-.45-3.56s-.32-2.23-.55-3.35c-.44-2.24-1.13-4.59-1.69-7.61.17-3.59.83.56,1.1-.75l-1.26-3.07c0-.78.3-.54.47-.43-.54-2.63-1.31-.14-1.78-4.35-.69-.55-.3-2.74.22-5.41a34.91,34.91,0,0,0,.67-4.23,15.08,15.08,0,0,0-.24-4.22c.46-1.25.74.67,1.26.3-.25-3.57-.33-5.11-.46-6.5s-.2-2.61-.54-5.63c.48-1.62,1-3.24,1.56-4.83-1.6,3.47-1.89-1.32-2.07-5.65-.69,1.22-1.29,2.27-1.61,3l.25-3.38c.08-1.13.26-2.24.39-3.37.39-.75.67,0,.94,1.2,0-.47,0-.92,0-1.27,1-2.24,1.44-.84,1.75,1l-1.31,2.17c.47,1.78,1,3.44,1.85,3.24a10.32,10.32,0,0,1,0-2.19c.13.46.27.76.43.6s0-.93-.08-2.05l1.73-1.15-.47-.47,1.39-4.07c.45-1.36,1-2.67,1.56-4,.07-1.56.08-3.1.12-4.68s.2-3.16.36-4.88c.09-.85.19-1.74.31-2.66s.35-1.85.57-2.83.48-2,.78-3.09a29.69,29.69,0,0,1,1.09-3.36c0,2.65,1.35,1.15,2.44,1.76-1.16,1-1.68,2.8-2.25,4.93l-.86,3.39a25.13,25.13,0,0,1-1.08,3.57c1-2.46,1.34-1.71,1.33-1,.51-3,1.34-5.87,2-8.83.43.29.78-.08,1.17-.77s.93-1.68,1.59-2.67c-1.28.41-.89-1.26-.06-3.48.21-.56.44-1.15.69-1.75l.82-1.77a28.6,28.6,0,0,0,1.31-3.19c.7.12.91,1.22-1.27,5.11a7.62,7.62,0,0,0,2.17-5.22,7.45,7.45,0,0,1,2.18-5.19c-.54,1-.92,1.42-.84,2a21,21,0,0,1,2.4-4.6c1-1.41,1.87-2.25,1.71-1.48l-.57.92c1-1.49,2.29-3.4,3.58-5.45s2.82-4.12,4.09-6.14,2.56-3.78,3.37-5.26,1.27-2.57,1.14-3a7.23,7.23,0,0,1,1,2.6c1.29-4.49,2.7-9.09,4.45-13.58.27,1.83,5.79,1.09,2.24,6a27.58,27.58,0,0,0,2.26-2c.85-.85,1.76-2,2.91-3.37-1,.64-3.6.54-2.54-.69a25.64,25.64,0,0,0,3.67-1.81l1.41-.89a28.77,28.77,0,0,1,2.69-1.5c-1.54.92-1.59-2.06.6-3.86-.11.54,1.65,1.56,1,2.41l1.89-3.13c.64-1.05,1.35-2,2-3.06-1.13,1.4,1,1.68,2.55,1.23-.41.05.77-.87,2.22-2s3.27-2.21,4-2.85l-2.7,1.28a17.53,17.53,0,0,0,5.59-5.64,19.65,19.65,0,0,1,2-2.66,14.38,14.38,0,0,1,3.74-2.86c-.6.89-.55,3.62,3,1.9.25-.48.63-1.27,1.17-2.25a27.62,27.62,0,0,1,2.11-3.38,25.46,25.46,0,0,1,7.25-7.05l1.52,0c1.56-1,3.11-2,4.73-2.85-1.29,1.37-3.68,4-6.23,6.57-1.29,1.25-2.53,2.68-3.74,3.92s-2.32,2.37-3.25,3.27c2.83-.89,1.08.31,4.93-1.73,1.64-.15-1.68,1.91-2.79,2.52l4.57-2.12,1.14-.53,1.17-.47,2.33-.94c-.48-.52,1.14-1.63,2.79-2.71s3.41-2,3-2.44c-3.31,1.71-6.43,3.76-9.58,5.66-.49-.51.54-2,2.59-3.78a23.91,23.91,0,0,1,3.74-2.66,32.14,32.14,0,0,1,4.85-2.2c1.92-.18-.44,2.75-.13,3.1a13.91,13.91,0,0,1,3.41-1.9,14,14,0,0,1,3.47-1.16l-2.66,1.66a15.77,15.77,0,0,0,4.93-2.24,11.69,11.69,0,0,1,5.77-1.63,13.22,13.22,0,0,1,3.24,0c1.12.07,2,.08,2.08-.34-3-.89-4.75-5.35-3.18-6.9.31,0,2.62-.17,5.09-.28.62,0,1.24-.06,1.86-.06l1.76,0a19.41,19.41,0,0,1,2.54.21c3,.7-3.61,3.56-1.08,4.16,0-.38,1.45-1.09,2-1.35,1.79,0-.52,1.25,3.21.41.42-1.44,7.74-.87,1.62-1.37a16.62,16.62,0,0,1,3.93-.51c1.09,0,2.25-.06,4.45-.23-.74-.38.17-1.21,1.77-2A18.9,18.9,0,0,1-584.6,141c-.21.35.67.78,1.09,1,2,0,3.68,0,5.28,0s3.09.23,4.55.35l4.43.36c1.52.18,3.14.35,4.94.49.65.36,4.08,1.06,2.54,1.51a14.05,14.05,0,0,1,4.26-.21c4.11,1.71-4.93-.44-1.85,1.38.36-.72,5.83-.46,9-.29-.38-.66-2.17-1.12-4.29-1.23s-4.54,0-6.14,0c.09-.84,1.55-1.52,4-2a28.3,28.3,0,0,1,4.32-.45c1.63,0,3.45.05,5.39.2,3.08.3,3.65.82,3.63,1.09s-.69.47-.15.47a36.4,36.4,0,0,0,6.44,1.16,29.69,29.69,0,0,0,4,.2,17.9,17.9,0,0,1,3.6.28,21.72,21.72,0,0,1,5.15,1.91c3.26,2.24-.54,2.08,0,3.08a29.94,29.94,0,0,1-5.71-2.1,33.15,33.15,0,0,0-4.57-1.77l3.84,1.61a21.86,21.86,0,0,1-6.51-1.51,22,22,0,0,0,4.18,1.65l3.3,1,3.73,1.3c1.3.46,2.65.89,4,1.4l3.93,1.62c1.27.56,2.54,1,3.67,1.65s2.21,1.16,3.16,1.71c1.56.31,4.17,1.09,3.2.17l-2.6-1c-2-1.85,5.3,1.08,2.24-.74a56.59,56.59,0,0,1,5.87,1.85c1,.39,2.11.83,3.2,1.36a29.81,29.81,0,0,1,3.24,2l.26,1.56c.08-.37-2.65-2.37-4.13-2.78,1.1.3,2.66,1.69,4.3,2.95a19.76,19.76,0,0,0,2.47,1.69,4.52,4.52,0,0,0,2.3.77c-.9-.9-1.78-1.85-2.73-2.69,1.82.67,3.83,1.48,5.94,2.38a26.7,26.7,0,0,1,3.12,1.56,24.19,24.19,0,0,1,2.89,2.07c-1.08-2.24-1-.53-2.95-3.65,1.51,3.05-10.3-6.66-7.28-2.55a12.65,12.65,0,0,0-3.65-3.42,36.49,36.49,0,0,1-4.56-3.6c-.06.43,1.09,1.43-2.41-.59a5.69,5.69,0,0,1-1-.08l-.22-.15.17.14c-.18,0-.2,0,.07.05a6.4,6.4,0,0,1,1.54,1.48,21,21,0,0,1-5-1.56c-2-.71-4-1.48-5-1.7-2.07-1.15,1.09,0,.08-.94l-1.6-.33-1.62-.26c.06-.95-5.33-3.71.1-2.13l-4.7-1.9a30.44,30.44,0,0,0-4.55-2.1,22.59,22.59,0,0,0-4.46-1.3c-2.26-.85-6.09-.7-3.89-.81-1.31-.26-2.6-.56-3.9-.8l-3.93-.62,0-.23c-3.79-1-7.85-1.26-12-1.83a83.41,83.41,0,0,1-12.78-2c-1.32,0-2.67,0-4.22,0a54,54,0,0,1-5.54-.19l-.85-.8c-1.7,0-4.24-.05-6.55-.12s-4.39-.1-5.09.4a11,11,0,0,0-4.28-.64c-.92,0-1.91,0-3,.1s-2.11.26-3.21.42c-2.19.35-4.46.67-6.53,1.11s-4,.81-5.45,1l0,1-1.51.26-1.49.37c-1,.26-2,.53-3,.83l-3.18.95c-1.09.37-2.21.8-3.41,1.24l.54.78c-2,1-4.74,1.49-7.75,2.32-1.51.39-3.11.78-4.74,1.22s-3.23,1.08-4.84,1.73c.31-.49,2-1,3.21-1.31a25.12,25.12,0,0,0-6.13,1.72,59.76,59.76,0,0,0-5.7,3c-1.87,1-3.61,2.26-5.39,3.25a34.65,34.65,0,0,1-5.35,2.48,12.35,12.35,0,0,1-3.93,2.24,2,2,0,0,0,.38-.27l-.67.38a24.53,24.53,0,0,0-2.46.94c.78-.23,1.49-.5,2.11-.74a50,50,0,0,0-4.68,3.38l-1.3-.31-.4.29c-2,.85-1.17,1.29.18,1.29a14.59,14.59,0,0,0-2,2.07c-1.13-.14-2.2.78-3.33,1.73a13.78,13.78,0,0,1-1.77,1.32,3.84,3.84,0,0,1-2,.69c-.32.77-2.34,2.55-4.25,4.38s-3.54,3.91-3.4,4.92c-.2-.12-.74.21.11-.55a18.87,18.87,0,0,0-5,4.68l-1.57-.19L-694,187l-1.19,2.43c-2.68,1.74-3.92,2.4-2.44-.51-1,1.62-1.8,2.72-2.4,3.57s-1,1.46-1.39,2a34.59,34.59,0,0,0-3,5.05l-.42-.75c-1.39,1.82-2.8,5.33-4.17,6a29.19,29.19,0,0,0-4.23,4.73c-.42.56-.89,1.15-1.33,1.78l-1.34,2-2.88,4.42c-3.78,6.3-7.68,13.66-10.91,19.46,1.61-.69.71.58-.34,2.22s-2.22,3.66-1.47,4.23c-.79.51-1.76,2.12-1.42,0-.25.81-.51,1.56-.76,2.27s-.48,1.37-.7,2c-.46,1.26-.92,2.37-1.34,3.44a14.82,14.82,0,0,0-1.26,6.53c-.75.6-.39-1.61-.89-1a6.11,6.11,0,0,1-.63,2.79c-.51.58-.18-1.07-.12-2.18a24,24,0,0,0-.79,4.07,7.6,7.6,0,0,0,.23,2.49,3.46,3.46,0,0,0,1.83,2.12,15.42,15.42,0,0,0-1.41,4,9.91,9.91,0,0,0,.25,3.59c-.73,1.08-1.62,3-1.06-1.24l-.71,3.22c-.15.73-.32,1.53-.49,2.35s-.25,1.69-.37,2.53c-.45,3.36-.71,6.47,0,6.66a11.14,11.14,0,0,0-.25,4c-.13,1.33-.23,2.36-.31,3.24s-.09,1.6-.12,2.32c-.06,1.44-.1,2.88-.1,5.51l.24-1.46c1.44,2.08.34,4.35.63,8.58l-.16-.12a30,30,0,0,0-.15,4.91,12.2,12.2,0,0,0,.25,2,13,13,0,0,1,.22,2c0,1,0,2.44,0,4.85l.88-.63c1.08.33,1.05,2.44.93,5.18s0,6.08.84,8.73l.18-2.07c.57,1.42.38,3.61.06,5.87s-.79,4.6-.45,6.11c0,.7-.59-.94-.94-1.83,1,8.14,1.49.7,3.41,6.39-.33,1.26-2.1-.87-1,3.06.07,1.05,1.52,3.69,3.06,6.73.84,1.5,1.69,3.1,2.38,4.67a24.33,24.33,0,0,1,.9,2.34,14.13,14.13,0,0,1,.63,2.17c0-1.32,0-2.62,1.47-.24a25.4,25.4,0,0,1,1.32,3.41c.21.65.42,1.31.63,2s.49,1.33.74,2c1,2.65,2.13,5.25,3.86,6.49.14.54.13.79,0,.87.5.66,1.12,1.54,1.79,2.5s1.39,2,2.18,3a24,24,0,0,0,3.93,4.33c-.31,1.11.42,2.6,1.55,4.3a38.25,38.25,0,0,0,4.35,5.25c1.63,1.69,3.14,3.34,4.2,4.59s1.56,2.23,1,2.72c1.12,1.24,2.2,2.52,3.37,3.72l3.52,3.57-.41,0a28.37,28.37,0,0,0,2.9,2.91,26.73,26.73,0,0,0,2.31,1.83,18.69,18.69,0,0,0,3.5,1.94c1,1.12,0,.63-.23.67,3.34,3.28,5.18,5.11,7.18,6.43a43.07,43.07,0,0,0,7.55,4.07l.08,1.27a12.65,12.65,0,0,1,2.58,1.81c1.17,1,2.71,2.1,4.42,3.4.85.64,1.76,1.32,2.71,2s2,1.26,3,1.87,2.09,1.2,3.16,1.75a28.73,28.73,0,0,0,3.26,1.39c-.13.06-.39.14-1.11-.07,4.85,1.9,10.14,5.17,15,7.52,1.22.59,2.4,1.14,3.52,1.61.56.24,1.11.47,1.64.66s1.06.33,1.56.46c2,.51,3.68.62,4.85.06l1.68.33,1.7.26,3.38.5c-8.33-2.66,1.69-1.15-1.6-2.71a19.62,19.62,0,0,1,4.83,1.88c1.14.6,1.34,1.07-.72.62l-.58-.36c-2,1.54,10.39,3.21,9.92,4.31a219.59,219.59,0,0,0,25.41,3.43l6.3.36c2.1.05,4.18,0,6.26,0,1,0,2.08,0,3.11,0l3.1-.17,3.08-.19c1-.06,2-.13,3-.27-.67-.41-1.34-.8-2-1.25,1.88-.15,3.74-.4,5.62-.6,1.51.15,2.14.88-1.9,1.33a8.29,8.29,0,0,0,4.17-.6,6.61,6.61,0,0,0,2.52-1.35c7.9-.81-2.77,2.23-.38,1.84l3.25-.69-.76,0c1.27-.53,1.93-1,2.87-1.36a14.66,14.66,0,0,1,1.74-.58c.72-.23,1.61-.46,2.8-.72,3.06-.4,1.74.53,2.94.31,0,.1.43.06,1.83-.38,2.32-.56,4.63-1.21,7-1.81l-3.08-.33a36.92,36.92,0,0,1,3.87-1.46c.8-.35.82-.49-.95-.67,2.58.26,9-1.61,14.92-4.07,1.51-.56,2.94-1.26,4.31-1.88l3.81-1.75a47.3,47.3,0,0,1,4.72-2.16c.89-.69,1.8-1.33,2.74-1.94s1.85-1.28,2.83-1.9c2-1.23,4.11-2.37,6.39-3.83-1.26.52-2.61-.16,1.35-2.51,0,.79.5,1,1.3.76a12.09,12.09,0,0,0,3.12-1.5c1.2-.74,2.53-1.59,3.83-2.31.65-.35,1.29-.67,1.9-.93a7.09,7.09,0,0,1,1.67-.58c-1.72.53.86-1.59,3.19-3.61a17.46,17.46,0,0,0,2.68-2.69c.46-.64.31-.88-1-.37,3.07-2.37.83.62,3.48-.84.78-.87,1.65-1.68,2.49-2.57s1.74-1.75,2.66-2.62l2.84-2.63,2.87-2.77c1-.94,2-1.86,3-2.85s1.9-2,2.87-3.05a66,66,0,0,0,5.45-6.61c-.17-.35-1.78.82-.68-1.42,1.74-1.2,3.33-2.54,5-3.85a6,6,0,0,0,.64-2.5,3.47,3.47,0,0,1,.58-1.33,8.51,8.51,0,0,1,1.64-1.79c-.57.33-1.41.82-.68-.52,6.85-8.92,11.88-19.41,15.88-30.18s7.06-21.89,10.48-33c-1.22,3-.92.9-.53-1.43-.43,1.49-.86-.17-1.38.06l1.27-4.64c.4-1.55.89-3.1,1.21-4.67-.59-.94-.42-3.49-.25-5.95a23.24,23.24,0,0,0,.06-3.4,3.09,3.09,0,0,0-.51-1.94l.15,3c-.7-2-1.54-.66-2.5,1.09s-2.12,3.88-3.05,3.52a8.29,8.29,0,0,1,.07,3.76c-.26,1.37-.76,2.85-1.22,4.4-.24.78-.47,1.58-.67,2.4s-.38,1.65-.56,2.5a15.51,15.51,0,0,0-.17,5.33c-.66,1.47-.37-1.43-.95-.69.54,1.93.15,4.1-1.1,7.94l-.09-.49-.44,2c-.16.64-.34,1.25-.51,1.85-.34,1.19-.68,2.31-1,3.38a61.61,61.61,0,0,1-2.2,6l-1.22,3c-.4,1-.94,2-1.43,3.14-1,2.18-2.1,4.63-3.57,7.42l1.25-.47a21.57,21.57,0,0,1-2.48,3.89c0,3.47,3.22-6.93,3.49-3.69a12.88,12.88,0,0,0-2.66,3.82c-1,1.78-2.1,3.85-3.16,5.92l-.81,1.54c-.28.5-.58,1-.86,1.45-.57.93-1.13,1.81-1.67,2.58-1.06,1.53-2,2.63-2.83,2.84-2.26,3.5,1.59-.46-.68,3.06l-1.09.61.07,1.31a8.5,8.5,0,0,1-2.19,2.27c-.63.42-1.1.54-1.33.44a23.59,23.59,0,0,0,1.35-2.21,29.18,29.18,0,0,0-3.88,5.16,29.31,29.31,0,0,1-2.73,3.85c.91-1,1.85-1.94,2.75-2.93-.8,1.17-1.68,2.34-2.57,3.53s-1.78,2.44-2.8,3.59c-2,2.32-4,4.77-6.21,7l-3.2,3.42q-1.67,1.63-3.26,3.26c-2.08,2.22-4.24,4.2-6.12,6.26l.92-.21c-.73.77-1.36,1.42-1.93,1.95s-1.11.95-1.57,1.31a26.86,26.86,0,0,1-2.42,1.69c-.77.48-1.54,1-2.61,1.7s-2.42,1.63-4.25,3.06l.21-.28a22.89,22.89,0,0,1-5.4,4.31c1.69-1.7-4.25,1.52-2-.63-.89.72-1.64,1.27-2.26,1.71s-1.1.81-1.47,1.1a8.46,8.46,0,0,0-1.36,1.22c-.26.31-.42.58-.79,1.06a16.3,16.3,0,0,1-2.13,2.23h-1.6a24.26,24.26,0,0,1-1.85,1.83,18.41,18.41,0,0,1-3.82,2.32c3.22-2.15-3.18.2.36-2.32a33.55,33.55,0,0,0-6,2.22c-1.71.77-3.17,1.5-4.48,2.2a21.37,21.37,0,0,1-3.66,1.66,8,8,0,0,1-3.57.27c-1.78,1.68.29,1.28,2.56.6s4.63-1.78,3.55-1.09c1.09-.07.37.63-1,1.46a24.16,24.16,0,0,1-5,2.05c-1.5.49-3,.3-5,.18a22.61,22.61,0,0,0-3.52.08c-.68.07-1.42.18-2.21.34s-1.68.28-2.63.5c.76-.16.77-.32,1.53-.49a16.65,16.65,0,0,0-4.27,1,20.64,20.64,0,0,1-2.26.64,11.76,11.76,0,0,1-2.56.15c-1.75,1.57-4.58.74-4.9,2.41l7-1.63c-2,.56-3.8,1.47-6,2.27a24.11,24.11,0,0,1-8.26,1.3,18.19,18.19,0,0,1,3.77-1.46,9.13,9.13,0,0,0-2.87.28,7.52,7.52,0,0,1-2.93.23c.1-.42.7-.65,1.59-.89a29.44,29.44,0,0,1,3.39-.61c1.31-.19,2.74-.37,4.09-.64a19,19,0,0,0,3.64-1.18c-1.09-.17-3,.53-4.52.88s-2.45.49-1.49-.49c-1.4,1.27-3.32,1.45-5.5,1.59a19.35,19.35,0,0,0-7.22,1.06l.29-1a15.86,15.86,0,0,1-4.06.73l2.72-1.29c-4.22,1.14-8.19-.64-12.23-.26,4.25.11,4.73.38,4.59.75s-.89.87.92,1.16a19.35,19.35,0,0,1-3.33.24,14.5,14.5,0,0,1-2.28-.16,9.82,9.82,0,0,1-2.85-.93,18.69,18.69,0,0,0-3.05-1.21,29.73,29.73,0,0,0-6.2-.8c1.58,0,5.89,1,3.38,1.29a32.09,32.09,0,0,1-3.56-.72,16.07,16.07,0,0,1-2.86-1c-7.73-.78,1.06,1.12-2.3,1.28-2.49-1.44-3.86-.12-7.34-.34l.15-1c-1.08-.27-1.93-.45-2.61-.56a12,12,0,0,0-1.57-.22,2.12,2.12,0,0,0-1.38.34c-.57.37-1,.74-4.9-.53l3.63-.54c-1.38-.21-2.78-.37-4.15-.63.37-.28.73-.54,1.1-.84a28.57,28.57,0,0,1-5.18-.87c-.71-.2-1.41-.43-2.2-.7s-1.62-.67-2.65-1.09c.77,1-1.1,1.48-4.89.23-2.35-1.47,1.72-.29-3.56-2.21a8.45,8.45,0,0,1,2.24,0,5,5,0,0,1,1.26.43,6.23,6.23,0,0,1,1.43.89c.34-.22,1.38-.17,1.72-.39-2.54-1.46-6.72-2.66-8.61-3.38a12.62,12.62,0,0,1,1.94,1c-1.33-.29-2.68-.56-4-.88l-4-1.06c-1-.86,0-.7,1.06-.55-1.53-.6-2.79-.59-5-1.62.91-.43,1.11-1.16,4.35-.12-2.46-.74-4.84-1.7-7.26-2.6a13.67,13.67,0,0,0-1.52-1.48c-.6-.55-1-1.08-.51-.95a35,35,0,0,0-6.74-3.3c-1.26-.6-2.56-1.23-3.82-1.92a18.23,18.23,0,0,1-3.55-2.42,6,6,0,0,1-1.93-.87c-1.06-.8-2.06-1.63-3-2.45s-1.89-1.75-2.89-2.6-2-1.7-3.16-2.54a32.77,32.77,0,0,0-3.67-2.56c-.58-1.15-1.2-2.23-1.72-3.41-3.78-3.16,2.31,4.65-4-.65-2.28-1.85-2.47-2.44-2.22-2.79s.88-.4.31-1.28a50.63,50.63,0,0,1-4.8-3.3,20.56,20.56,0,0,1-4.84-5.82C-696.89,404.55-696.14,405.73-695,406.91ZM-726.22,355c.29.52.76,1.29,1.14,2a3.43,3.43,0,0,1,.61,2,2.67,2.67,0,0,1-1.33-1.59A23.24,23.24,0,0,1-726.22,355Zm-6-92.08a7.88,7.88,0,0,1-1.08,3.68A14.44,14.44,0,0,1-732.2,262.9Zm208.44-116.75h-.14C-526.43,144.9-525.54,145.36-523.76,146.15Zm5.3,2.38c.59.09.6-.05.42-.27a8.67,8.67,0,0,1-3-1A4.69,4.69,0,0,0-518.46,148.53Zm-19.9,315.11h-1.15C-537.11,462.81-537.74,463.21-538.36,463.64Z" transform="translate(742.03 -135.82)"/><path class="a" d="M-733.21,273.58a.88.88,0,0,1-.6.4C-733.74,274.47-733.55,274.52-733.21,273.58Z" transform="translate(742.03 -135.82)"/><path class="a" d="M-666.42,431.54l.15.11a.46.46,0,0,0,.25,0Z" transform="translate(742.03 -135.82)"/><path class="a" d="M-605.18,148.05a8,8,0,0,1-2.24-.1C-607.44,148.19-606.89,148.3-605.18,148.05Z" transform="translate(742.03 -135.82)"/><path class="a" d="M-490.16,160.73c-1.08-.63-2.22-1.15-3.34-1.7a10.32,10.32,0,0,1,2.73,2C-490.72,160.77-491.15,160.11-490.16,160.73Z" transform="translate(742.03 -135.82)"/><path class="a" d="M-468.4,184.75c.46.27.82.76,1.28,1l.2-.42C-468.57,183.82-469.95,183-468.4,184.75Z" transform="translate(742.03 -135.82)"/><path class="a" d="M-489,165.29c-.1.42.37.88,1.15,1.39.38.26.85.53,1.36.82l1.57,1-.37-.26c.63-.25.33-.69-.43-1.24A27.16,27.16,0,0,0-489,165.29Z" transform="translate(742.03 -135.82)"/><path class="a" d="M-484.4,168.79c.66.43,1.34.88,1.94,1.36C-481.95,170-483.19,169.51-484.4,168.79Z" transform="translate(742.03 -135.82)"/><path class="a" d="M-511.45,150.82c1,.7,1.13-.63,1.63,0,.84-.18-1.17-.75-2.59-1-.7-.13-1.27-.12-1.25,0S-513,150.24-511.45,150.82Z" transform="translate(742.03 -135.82)"/><polygon class="a" points="253.32 32.82 253.11 31.49 251.47 31.4 253.32 32.82"/><path class="a" d="M-505.66,158l3.48,2.1c0-.18.53,0,1.13.19C-503.26,159.11-505.62,157.68-505.66,158Z" transform="translate(742.03 -135.82)"/><path class="a" d="M-501,160.28a18.87,18.87,0,0,0,2.93,1.47A28.35,28.35,0,0,0-501,160.28Z" transform="translate(742.03 -135.82)"/><path class="a" d="M-493.52,165.91c-.3-.27-.59-.55-.9-.81l-2.44-1.49C-495.74,164.38-494.59,165.08-493.52,165.91Z" transform="translate(742.03 -135.82)"/><path class="a" d="M-546.83,143.8l-4.42-.49c-.5.26.65.68,2.3.83C-547.87,144.09-546.23,144.25-546.83,143.8Z" transform="translate(742.03 -135.82)"/><path class="a" d="M-534.53,149.56a4.64,4.64,0,0,1-1.65-1.26l-.45,1.17Z" transform="translate(742.03 -135.82)"/><path class="a" d="M-546.95,146.86c-.5.27-6.38-.13-1,.76C-547.41,147.33-543.08,147.9-546.95,146.86Z" transform="translate(742.03 -135.82)"/><polygon class="a" points="129.59 10.18 130.68 9.91 130.1 7.95 129.59 10.18"/><path class="a" d="M-663.3,172.56c4.52-2.3.32-1.73,4.53-3.64.75-1.06-3.44,1.56-2.63.57C-663.72,171.58-665.22,172.2-663.3,172.56Z" transform="translate(742.03 -135.82)"/><path class="a" d="M-661.4,169.49c.38-.34.77-.7,1.17-1.12A9.4,9.4,0,0,0-661.4,169.49Z" transform="translate(742.03 -135.82)"/><path class="a" d="M-411.92,312.69c.26-1.14.38-2.29.56-3.44l-.74,2.2C-412,311.87-412,312.28-411.92,312.69Z" transform="translate(742.03 -135.82)"/><path class="a" d="M-413.21,306l1.32-.79-1.13-2.08A7.66,7.66,0,0,1-413.21,306Z" transform="translate(742.03 -135.82)"/><path class="a" d="M-726.44,345.6l-.37-.15c-.19.57,0,1.31.36,2.78Z" transform="translate(742.03 -135.82)"/><polygon class="a" points="32.49 249.98 32.1 249.33 31.87 251.15 32.49 249.98"/><path class="a" d="M-685.39,413.31c-1.07-1-2.46-2.12-3.46-3.25C-686.49,412.3-686.11,414.63-685.39,413.31Z" transform="translate(742.03 -135.82)"/></svg>